<svg width="483" height="144" viewBox="0 0 483 144" fill="none" xmlns="http://www.w3.org/2000/svg">
<rect width="125" height="32" rx="16" fill="black"/>
<rect x="168" width="311" height="32" rx="16" fill="black"/>
<rect x="168" y="56" width="311" height="32" rx="16" fill="black"/>
<rect x="168" y="112" width="315" height="32" rx="16" fill="black"/>
<rect y="56" width="125" height="32" rx="16" fill="black"/>
<rect x="1" y="111" width="125" height="32" rx="16" fill="black"/>
<path d="M10.7413 22V10.8H14.5973C15.1999 10.8 15.7439 10.9493 16.2293 11.248C16.7199 11.5467 17.1093 11.9493 17.3973 12.456C17.6906 12.9627 17.8373 13.5227 17.8373 14.136C17.8373 14.76 17.6879 15.3253 17.3893 15.832C17.0959 16.3333 16.7039 16.7333 16.2133 17.032C15.7226 17.3307 15.1839 17.48 14.5973 17.48H12.4053V22H10.7413ZM12.4053 15.816H14.4293C14.7493 15.816 15.0399 15.736 15.3013 15.576C15.5679 15.416 15.7786 15.2027 15.9333 14.936C16.0933 14.6693 16.1733 14.368 16.1733 14.032C16.1733 13.696 16.0933 13.3947 15.9333 13.128C15.7786 12.856 15.5679 12.6427 15.3013 12.488C15.0399 12.328 14.7493 12.248 14.4293 12.248H12.4053V15.816ZM24.9809 14H26.6449V22H24.9729L24.9089 20.84C24.6742 21.2507 24.3569 21.5813 23.9569 21.832C23.5569 22.0827 23.0849 22.208 22.5409 22.208C21.9542 22.208 21.4022 22.0987 20.8849 21.88C20.3675 21.656 19.9115 21.3467 19.5169 20.952C19.1275 20.5573 18.8235 20.104 18.6049 19.592C18.3862 19.0747 18.2769 18.52 18.2769 17.928C18.2769 17.3573 18.3835 16.8213 18.5969 16.32C18.8102 15.8133 19.1062 15.3707 19.4849 14.992C19.8635 14.6133 20.3009 14.3173 20.7969 14.104C21.2982 13.8853 21.8342 13.776 22.4049 13.776C22.9862 13.776 23.4982 13.9093 23.9409 14.176C24.3889 14.4373 24.7595 14.7733 25.0529 15.184L24.9809 14ZM22.5009 20.6C22.9702 20.6 23.3809 20.4853 23.7329 20.256C24.0849 20.0213 24.3569 19.7067 24.5489 19.312C24.7462 18.9173 24.8449 18.48 24.8449 18C24.8449 17.5147 24.7462 17.0747 24.5489 16.68C24.3515 16.2853 24.0769 15.9733 23.7249 15.744C23.3782 15.5093 22.9702 15.392 22.5009 15.392C22.0369 15.392 21.6129 15.5093 21.2289 15.744C20.8449 15.9787 20.5409 16.2933 20.3169 16.688C20.0929 17.0827 19.9809 17.52 19.9809 18C19.9809 18.4853 20.0955 18.9253 20.3249 19.32C20.5595 19.7093 20.8662 20.0213 21.2449 20.256C21.6289 20.4853 22.0475 20.6 22.5009 20.6ZM30.6413 22.152C30.2199 22.1253 29.8093 22.04 29.4093 21.896C29.0093 21.752 28.6573 21.5573 28.3533 21.312C28.0546 21.0613 27.8306 20.768 27.6813 20.432L29.0973 19.824C29.1666 19.968 29.2866 20.1093 29.4573 20.248C29.6333 20.3867 29.8386 20.5013 30.0733 20.592C30.3079 20.6773 30.5533 20.72 30.8093 20.72C31.0599 20.72 31.2919 20.6853 31.5052 20.616C31.7239 20.5413 31.9026 20.4293 32.0413 20.28C32.1799 20.1307 32.2493 19.952 32.2493 19.744C32.2493 19.5093 32.1693 19.328 32.0093 19.2C31.8546 19.0667 31.6599 18.9653 31.4253 18.896C31.1906 18.8267 30.9559 18.76 30.7213 18.696C30.1986 18.5787 29.7186 18.4187 29.2812 18.216C28.8493 18.008 28.5053 17.744 28.2493 17.424C27.9933 17.0987 27.8653 16.7013 27.8653 16.232C27.8653 15.72 28.0039 15.2773 28.2812 14.904C28.5586 14.5253 28.9213 14.2347 29.3693 14.032C29.8226 13.8293 30.3053 13.728 30.8173 13.728C31.4573 13.728 32.0439 13.864 32.5773 14.136C33.1106 14.408 33.5186 14.7813 33.8013 15.256L32.4813 16.04C32.4013 15.88 32.2813 15.736 32.1213 15.608C31.9613 15.48 31.7799 15.3787 31.5773 15.304C31.3746 15.224 31.1639 15.1787 30.9453 15.168C30.6733 15.1573 30.4199 15.1893 30.1853 15.264C29.9559 15.3333 29.7719 15.4453 29.6332 15.6C29.4946 15.7547 29.4253 15.952 29.4253 16.192C29.4253 16.4267 29.5079 16.6027 29.6733 16.72C29.8386 16.832 30.0466 16.9227 30.2973 16.992C30.5533 17.0613 30.8146 17.1387 31.0813 17.224C31.5559 17.3733 32.0013 17.5573 32.4173 17.776C32.8333 17.9893 33.1693 18.2533 33.4253 18.568C33.6813 18.8827 33.8039 19.2667 33.7933 19.72C33.7933 20.2213 33.6413 20.6613 33.3373 21.04C33.0386 21.4187 32.6493 21.7067 32.1693 21.904C31.6893 22.1013 31.1799 22.184 30.6413 22.152ZM37.5631 22.152C37.1418 22.1253 36.7311 22.04 36.3311 21.896C35.9311 21.752 35.5791 21.5573 35.2751 21.312C34.9765 21.0613 34.7525 20.768 34.6031 20.432L36.0191 19.824C36.0885 19.968 36.2085 20.1093 36.3791 20.248C36.5551 20.3867 36.7605 20.5013 36.9951 20.592C37.2298 20.6773 37.4751 20.72 37.7311 20.72C37.9818 20.72 38.2138 20.6853 38.4271 20.616C38.6458 20.5413 38.8245 20.4293 38.9631 20.28C39.1018 20.1307 39.1711 19.952 39.1711 19.744C39.1711 19.5093 39.0911 19.328 38.9311 19.2C38.7765 19.0667 38.5818 18.9653 38.3471 18.896C38.1125 18.8267 37.8778 18.76 37.6431 18.696C37.1205 18.5787 36.6405 18.4187 36.2031 18.216C35.7711 18.008 35.4271 17.744 35.1711 17.424C34.9151 17.0987 34.7871 16.7013 34.7871 16.232C34.7871 15.72 34.9258 15.2773 35.2031 14.904C35.4805 14.5253 35.8431 14.2347 36.2911 14.032C36.7445 13.8293 37.2271 13.728 37.7391 13.728C38.3791 13.728 38.9658 13.864 39.4991 14.136C40.0325 14.408 40.4405 14.7813 40.7231 15.256L39.4031 16.04C39.3231 15.88 39.2031 15.736 39.0431 15.608C38.8831 15.48 38.7018 15.3787 38.4991 15.304C38.2965 15.224 38.0858 15.1787 37.8671 15.168C37.5951 15.1573 37.3418 15.1893 37.1071 15.264C36.8778 15.3333 36.6938 15.4453 36.5551 15.6C36.4165 15.7547 36.3471 15.952 36.3471 16.192C36.3471 16.4267 36.4298 16.6027 36.5951 16.72C36.7605 16.832 36.9685 16.9227 37.2191 16.992C37.4751 17.0613 37.7365 17.1387 38.0031 17.224C38.4778 17.3733 38.9231 17.5573 39.3391 17.776C39.7551 17.9893 40.0911 18.2533 40.3471 18.568C40.6031 18.8827 40.7258 19.2667 40.7151 19.72C40.7151 20.2213 40.5631 20.6613 40.2591 21.04C39.9605 21.4187 39.5711 21.7067 39.0911 21.904C38.6111 22.1013 38.1018 22.184 37.5631 22.152ZM45.4956 22.208C44.7596 22.208 44.0876 22.0187 43.4796 21.64C42.877 21.2613 42.3943 20.7547 42.0316 20.12C41.6743 19.48 41.4956 18.7733 41.4956 18C41.4956 17.4133 41.5996 16.8667 41.8076 16.36C42.0156 15.848 42.301 15.4 42.6636 15.016C43.0316 14.6267 43.4583 14.3227 43.9436 14.104C44.429 13.8853 44.9463 13.776 45.4956 13.776C46.109 13.776 46.6716 13.904 47.1836 14.16C47.6956 14.4107 48.133 14.76 48.4956 15.208C48.8583 15.6507 49.125 16.1627 49.2956 16.744C49.4663 17.32 49.517 17.9333 49.4476 18.584H43.2796C43.349 18.952 43.4823 19.2853 43.6796 19.584C43.8823 19.8773 44.1383 20.1093 44.4476 20.28C44.7623 20.4507 45.1116 20.5387 45.4956 20.544C45.901 20.544 46.269 20.4427 46.5996 20.24C46.9356 20.0373 47.2103 19.7573 47.4236 19.4L49.1116 19.792C48.7916 20.5013 48.309 21.0827 47.6636 21.536C47.0183 21.984 46.2956 22.208 45.4956 22.208ZM43.2236 17.312H47.7676C47.7143 16.928 47.5783 16.5813 47.3596 16.272C47.1463 15.9573 46.877 15.7093 46.5516 15.528C46.2316 15.3413 45.8796 15.248 45.4956 15.248C45.117 15.248 44.765 15.3387 44.4396 15.52C44.1196 15.7013 43.853 15.9493 43.6396 16.264C43.4316 16.5733 43.293 16.9227 43.2236 17.312ZM57.9725 16.984V22H56.3085V17.392C56.3085 17.0347 56.2205 16.7093 56.0445 16.416C55.8738 16.1227 55.6418 15.8907 55.3485 15.72C55.0605 15.544 54.7352 15.456 54.3725 15.456C54.0205 15.456 53.6978 15.544 53.4045 15.72C53.1112 15.8907 52.8765 16.1227 52.7005 16.416C52.5245 16.7093 52.4365 17.0347 52.4365 17.392V22H50.7725V14H52.4365V14.848C52.7138 14.5173 53.0552 14.256 53.4605 14.064C53.8658 13.872 54.3032 13.776 54.7725 13.776C55.3645 13.776 55.9032 13.92 56.3885 14.208C56.8738 14.496 57.2578 14.8827 57.5405 15.368C57.8285 15.8533 57.9725 16.392 57.9725 16.984ZM65.5011 14H67.1651V22.208C67.1651 22.7573 67.0478 23.264 66.8131 23.728C66.5838 24.192 66.2718 24.592 65.8771 24.928C65.4825 25.2693 65.0291 25.5333 64.5171 25.72C64.0105 25.9067 63.4798 26 62.9251 26C62.3651 26 61.8265 25.88 61.3091 25.64C60.7918 25.4053 60.3358 25.0853 59.9411 24.68C59.5518 24.2747 59.2611 23.816 59.0691 23.304L60.5971 22.616C60.7038 22.9467 60.8745 23.24 61.1091 23.496C61.3491 23.752 61.6265 23.9547 61.9411 24.104C62.2611 24.2533 62.5891 24.328 62.9251 24.328C63.2558 24.328 63.5731 24.2747 63.8771 24.168C64.1865 24.0667 64.4611 23.9227 64.7011 23.736C64.9465 23.5493 65.1411 23.3253 65.2851 23.064C65.4291 22.8027 65.5011 22.5173 65.5011 22.208V20.856C65.2398 21.2613 64.9038 21.5893 64.4931 21.84C64.0825 22.0853 63.6051 22.208 63.0611 22.208C62.4958 22.208 61.9625 22.0987 61.4611 21.88C60.9598 21.6613 60.5198 21.36 60.1411 20.976C59.7625 20.5867 59.4665 20.1387 59.2531 19.632C59.0398 19.1253 58.9331 18.5813 58.9331 18C58.9331 17.4187 59.0398 16.8747 59.2531 16.368C59.4665 15.856 59.7625 15.408 60.1411 15.024C60.5198 14.6347 60.9598 14.3307 61.4611 14.112C61.9625 13.8933 62.4958 13.784 63.0611 13.784C63.6051 13.784 64.0825 13.9093 64.4931 14.16C64.9038 14.4053 65.2398 14.7333 65.5011 15.144V14ZM63.0771 20.6C63.5411 20.6 63.9465 20.4827 64.2931 20.248C64.6398 20.008 64.9091 19.6907 65.1011 19.296C65.2931 18.9013 65.3891 18.4693 65.3891 18C65.3891 17.52 65.2905 17.0853 65.0931 16.696C64.9011 16.3013 64.6318 15.9867 64.2851 15.752C63.9385 15.512 63.5358 15.392 63.0771 15.392C62.6291 15.392 62.2185 15.5093 61.8451 15.744C61.4771 15.9787 61.1838 16.2933 60.9651 16.688C60.7465 17.0827 60.6371 17.52 60.6371 18C60.6371 18.48 60.7465 18.9173 60.9651 19.312C61.1891 19.7067 61.4851 20.0213 61.8531 20.256C62.2265 20.4853 62.6345 20.6 63.0771 20.6ZM72.4644 22.208C71.7284 22.208 71.0564 22.0187 70.4484 21.64C69.8457 21.2613 69.363 20.7547 69.0004 20.12C68.643 19.48 68.4644 18.7733 68.4644 18C68.4644 17.4133 68.5684 16.8667 68.7764 16.36C68.9844 15.848 69.2697 15.4 69.6324 15.016C70.0004 14.6267 70.427 14.3227 70.9124 14.104C71.3977 13.8853 71.915 13.776 72.4644 13.776C73.0777 13.776 73.6404 13.904 74.1524 14.16C74.6644 14.4107 75.1017 14.76 75.4644 15.208C75.827 15.6507 76.0937 16.1627 76.2644 16.744C76.435 17.32 76.4857 17.9333 76.4164 18.584H70.2484C70.3177 18.952 70.451 19.2853 70.6484 19.584C70.851 19.8773 71.107 20.1093 71.4164 20.28C71.731 20.4507 72.0804 20.5387 72.4644 20.544C72.8697 20.544 73.2377 20.4427 73.5684 20.24C73.9044 20.0373 74.179 19.7573 74.3924 19.4L76.0804 19.792C75.7604 20.5013 75.2777 21.0827 74.6324 21.536C73.987 21.984 73.2644 22.208 72.4644 22.208ZM70.1924 17.312H74.7364C74.683 16.928 74.547 16.5813 74.3284 16.272C74.115 15.9573 73.8457 15.7093 73.5204 15.528C73.2004 15.3413 72.8484 15.248 72.4644 15.248C72.0857 15.248 71.7337 15.3387 71.4084 15.52C71.0884 15.7013 70.8217 15.9493 70.6084 16.264C70.4004 16.5733 70.2617 16.9227 70.1924 17.312ZM77.7413 22V14H79.4053V14.848C79.6826 14.5173 80.0239 14.256 80.4293 14.064C80.8346 13.872 81.2719 13.776 81.7413 13.776C82.0399 13.776 82.3359 13.816 82.6293 13.896L81.9653 15.576C81.7573 15.496 81.5493 15.456 81.3413 15.456C80.9893 15.456 80.6666 15.544 80.3733 15.72C80.0799 15.8907 79.8453 16.1227 79.6693 16.416C79.4933 16.7093 79.4053 17.0347 79.4053 17.392V22H77.7413ZM87.6006 22V10.8H89.2646V20.336H94.0886V22H87.6006ZM95.8506 14H97.5146V22H95.8506V14ZM96.6986 12.84C96.4426 12.84 96.2293 12.7573 96.0586 12.592C95.888 12.4267 95.8026 12.2187 95.8026 11.968C95.8026 11.7227 95.888 11.5173 96.0586 11.352C96.2293 11.1813 96.44 11.096 96.6906 11.096C96.936 11.096 97.144 11.1813 97.3146 11.352C97.4853 11.5173 97.5706 11.7227 97.5706 11.968C97.5706 12.2187 97.4853 12.4267 97.3146 12.592C97.1493 12.7573 96.944 12.84 96.6986 12.84ZM101.485 12.184V14H103.741V15.664H101.485V22H99.8208V15.664H98.8688V14H99.8208V12.184C99.8208 11.7467 99.9274 11.3493 100.141 10.992C100.354 10.6293 100.639 10.3413 100.997 10.128C101.359 9.91467 101.762 9.808 102.205 9.808C102.525 9.808 102.837 9.872 103.141 10C103.445 10.128 103.717 10.3253 103.957 10.592L102.765 11.768C102.706 11.672 102.623 11.6 102.517 11.552C102.415 11.4987 102.311 11.472 102.205 11.472C102.007 11.472 101.837 11.5413 101.693 11.68C101.554 11.8187 101.485 11.9867 101.485 12.184ZM109.528 15.664H107.848L107.84 22H106.176L106.184 15.664H104.912V14H106.184L106.176 11.488H107.84L107.848 14H109.528V15.664Z" fill="white"/>
<path d="M30.5426 78.208C29.764 78.208 29.0386 78.0587 28.3666 77.76C27.7 77.456 27.116 77.0373 26.6146 76.504C26.1186 75.9653 25.7293 75.344 25.4466 74.64C25.1693 73.936 25.0306 73.1867 25.0306 72.392C25.0306 71.5547 25.18 70.784 25.4786 70.08C25.7773 69.376 26.1853 68.7653 26.7026 68.248C27.22 67.7253 27.8093 67.32 28.4706 67.032C29.1373 66.744 29.836 66.6 30.5666 66.6C31.3933 66.6 32.188 66.792 32.9506 67.176C33.7133 67.56 34.3773 68.136 34.9426 68.904L33.4546 69.712C33.0706 69.232 32.6226 68.8693 32.1106 68.624C31.604 68.3787 31.084 68.256 30.5506 68.256C30.0333 68.256 29.5426 68.3627 29.0786 68.576C28.6146 68.784 28.204 69.0773 27.8466 69.456C27.4893 69.8293 27.2066 70.2693 26.9986 70.776C26.796 71.2773 26.6946 71.824 26.6946 72.416C26.6946 72.9867 26.7933 73.5227 26.9906 74.024C27.1933 74.5253 27.4706 74.9653 27.8226 75.344C28.18 75.7173 28.5906 76.0107 29.0546 76.224C29.524 76.4373 30.0253 76.544 30.5586 76.544C30.9533 76.544 31.332 76.48 31.6946 76.352C32.0573 76.224 32.3933 76.0427 32.7026 75.808C33.0173 75.568 33.292 75.2827 33.5266 74.952C33.7613 74.6213 33.948 74.2533 34.0866 73.848H31.7106V72.376H36.0386C36.0493 73.176 35.9106 73.928 35.6226 74.632C35.34 75.336 34.9453 75.9573 34.4386 76.496C33.9373 77.0293 33.3533 77.448 32.6866 77.752C32.02 78.056 31.3053 78.208 30.5426 78.208ZM40.9488 78.208C40.2128 78.208 39.5408 78.0187 38.9328 77.64C38.3301 77.2613 37.8474 76.7547 37.4848 76.12C37.1274 75.48 36.9488 74.7733 36.9488 74C36.9488 73.4133 37.0528 72.8667 37.2608 72.36C37.4688 71.848 37.7541 71.4 38.1168 71.016C38.4848 70.6267 38.9114 70.3227 39.3968 70.104C39.8821 69.8853 40.3994 69.776 40.9488 69.776C41.6848 69.776 42.3541 69.9653 42.9568 70.344C43.5648 70.7227 44.0474 71.232 44.4048 71.872C44.7674 72.512 44.9488 73.2213 44.9488 74C44.9488 74.5813 44.8448 75.1253 44.6368 75.632C44.4288 76.1387 44.1408 76.5867 43.7728 76.976C43.4101 77.36 42.9861 77.6613 42.5008 77.88C42.0208 78.0987 41.5034 78.208 40.9488 78.208ZM40.9488 76.544C41.3914 76.544 41.7888 76.4267 42.1408 76.192C42.4928 75.9573 42.7701 75.648 42.9728 75.264C43.1808 74.8747 43.2848 74.4533 43.2848 74C43.2848 73.536 43.1781 73.1093 42.9648 72.72C42.7568 72.3307 42.4768 72.0213 42.1248 71.792C41.7728 71.5573 41.3808 71.44 40.9488 71.44C40.5114 71.44 40.1141 71.5573 39.7568 71.792C39.4048 72.0267 39.1248 72.3387 38.9168 72.728C38.7141 73.1173 38.6128 73.5413 38.6128 74C38.6128 74.4747 38.7194 74.904 38.9328 75.288C39.1461 75.672 39.4288 75.9787 39.7808 76.208C40.1381 76.432 40.5274 76.544 40.9488 76.544ZM49.7456 78.208C49.0096 78.208 48.3376 78.0187 47.7296 77.64C47.127 77.2613 46.6443 76.7547 46.2816 76.12C45.9243 75.48 45.7456 74.7733 45.7456 74C45.7456 73.4133 45.8496 72.8667 46.0576 72.36C46.2656 71.848 46.551 71.4 46.9136 71.016C47.2816 70.6267 47.7083 70.3227 48.1936 70.104C48.679 69.8853 49.1963 69.776 49.7456 69.776C50.4816 69.776 51.151 69.9653 51.7536 70.344C52.3616 70.7227 52.8443 71.232 53.2016 71.872C53.5643 72.512 53.7456 73.2213 53.7456 74C53.7456 74.5813 53.6416 75.1253 53.4336 75.632C53.2256 76.1387 52.9376 76.5867 52.5696 76.976C52.207 77.36 51.783 77.6613 51.2976 77.88C50.8176 78.0987 50.3003 78.208 49.7456 78.208ZM49.7456 76.544C50.1883 76.544 50.5856 76.4267 50.9376 76.192C51.2896 75.9573 51.567 75.648 51.7696 75.264C51.9776 74.8747 52.0816 74.4533 52.0816 74C52.0816 73.536 51.975 73.1093 51.7616 72.72C51.5536 72.3307 51.2736 72.0213 50.9216 71.792C50.5696 71.5573 50.1776 71.44 49.7456 71.44C49.3083 71.44 48.911 71.5573 48.5536 71.792C48.2016 72.0267 47.9216 72.3387 47.7136 72.728C47.511 73.1173 47.4096 73.5413 47.4096 74C47.4096 74.4747 47.5163 74.904 47.7296 75.288C47.943 75.672 48.2256 75.9787 48.5776 76.208C48.935 76.432 49.3243 76.544 49.7456 76.544ZM61.2545 66H62.9185V78H61.2545V76.824C60.9932 77.24 60.6518 77.576 60.2305 77.832C59.8092 78.0827 59.3158 78.208 58.7505 78.208C58.1692 78.208 57.6252 78.0987 57.1185 77.88C56.6118 77.6613 56.1638 77.36 55.7745 76.976C55.3905 76.5867 55.0892 76.1387 54.8705 75.632C54.6518 75.1253 54.5425 74.5813 54.5425 74C54.5425 73.4187 54.6518 72.8747 54.8705 72.368C55.0892 71.856 55.3905 71.408 55.7745 71.024C56.1638 70.6347 56.6118 70.3307 57.1185 70.112C57.6252 69.8933 58.1692 69.784 58.7505 69.784C59.3158 69.784 59.8092 69.912 60.2305 70.168C60.6518 70.4187 60.9932 70.7493 61.2545 71.16V66ZM58.7665 76.6C59.2358 76.6 59.6465 76.4853 59.9985 76.256C60.3505 76.0213 60.6225 75.7067 60.8145 75.312C61.0118 74.9173 61.1105 74.48 61.1105 74C61.1105 73.5147 61.0118 73.0747 60.8145 72.68C60.6172 72.2853 60.3425 71.9733 59.9905 71.744C59.6438 71.5093 59.2358 71.392 58.7665 71.392C58.3025 71.392 57.8785 71.5093 57.4945 71.744C57.1158 71.9787 56.8118 72.2933 56.5825 72.688C56.3585 73.0827 56.2465 73.52 56.2465 74C56.2465 74.4853 56.3612 74.9253 56.5905 75.32C56.8252 75.7093 57.1318 76.0213 57.5105 76.256C57.8945 76.4853 58.3132 76.6 58.7665 76.6ZM67.235 78.152C66.8137 78.1253 66.403 78.04 66.003 77.896C65.603 77.752 65.251 77.5573 64.947 77.312C64.6483 77.0613 64.4243 76.768 64.275 76.432L65.691 75.824C65.7603 75.968 65.8803 76.1093 66.051 76.248C66.227 76.3867 66.4323 76.5013 66.667 76.592C66.9017 76.6773 67.147 76.72 67.403 76.72C67.6537 76.72 67.8857 76.6853 68.099 76.616C68.3177 76.5413 68.4963 76.4293 68.635 76.28C68.7737 76.1307 68.843 75.952 68.843 75.744C68.843 75.5093 68.763 75.328 68.603 75.2C68.4483 75.0667 68.2537 74.9653 68.019 74.896C67.7843 74.8267 67.5497 74.76 67.315 74.696C66.7923 74.5787 66.3123 74.4187 65.875 74.216C65.443 74.008 65.099 73.744 64.843 73.424C64.587 73.0987 64.459 72.7013 64.459 72.232C64.459 71.72 64.5977 71.2773 64.875 70.904C65.1523 70.5253 65.515 70.2347 65.963 70.032C66.4163 69.8293 66.899 69.728 67.411 69.728C68.051 69.728 68.6377 69.864 69.171 70.136C69.7043 70.408 70.1123 70.7813 70.395 71.256L69.075 72.04C68.995 71.88 68.875 71.736 68.715 71.608C68.555 71.48 68.3737 71.3787 68.171 71.304C67.9683 71.224 67.7577 71.1787 67.539 71.168C67.267 71.1573 67.0137 71.1893 66.779 71.264C66.5497 71.3333 66.3657 71.4453 66.227 71.6C66.0883 71.7547 66.019 71.952 66.019 72.192C66.019 72.4267 66.1017 72.6027 66.267 72.72C66.4323 72.832 66.6403 72.9227 66.891 72.992C67.147 73.0613 67.4083 73.1387 67.675 73.224C68.1497 73.3733 68.595 73.5573 69.011 73.776C69.427 73.9893 69.763 74.2533 70.019 74.568C70.275 74.8827 70.3977 75.2667 70.387 75.72C70.387 76.2213 70.235 76.6613 69.931 77.04C69.6323 77.4187 69.243 77.7067 68.763 77.904C68.283 78.1013 67.7737 78.184 67.235 78.152ZM75.6006 78V66.8H77.2646V76.336H82.0886V78H75.6006ZM83.8506 70H85.5146V78H83.8506V70ZM84.6986 68.84C84.4426 68.84 84.2293 68.7573 84.0586 68.592C83.888 68.4267 83.8026 68.2187 83.8026 67.968C83.8026 67.7227 83.888 67.5173 84.0586 67.352C84.2293 67.1813 84.44 67.096 84.6906 67.096C84.936 67.096 85.144 67.1813 85.3146 67.352C85.4853 67.5173 85.5706 67.7227 85.5706 67.968C85.5706 68.2187 85.4853 68.4267 85.3146 68.592C85.1493 68.7573 84.944 68.84 84.6986 68.84ZM89.4848 68.184V70H91.7408V71.664H89.4848V78H87.8208V71.664H86.8688V70H87.8208V68.184C87.8208 67.7467 87.9274 67.3493 88.1408 66.992C88.3541 66.6293 88.6394 66.3413 88.9968 66.128C89.3594 65.9147 89.7621 65.808 90.2048 65.808C90.5248 65.808 90.8368 65.872 91.1408 66C91.4448 66.128 91.7168 66.3253 91.9568 66.592L90.7648 67.768C90.7061 67.672 90.6234 67.6 90.5168 67.552C90.4154 67.4987 90.3114 67.472 90.2048 67.472C90.0074 67.472 89.8368 67.5413 89.6928 67.68C89.5541 67.8187 89.4848 67.9867 89.4848 68.184ZM97.5278 71.664H95.8478L95.8398 78H94.1758L94.1838 71.664H92.9118V70H94.1838L94.1758 67.488H95.8398L95.8478 70H97.5278V71.664Z" fill="white"/>
<path d="M26.8286 121.8H28.4926V133H26.8286V127.832H21.7646V133H20.1006V121.8H21.7646V126.168H26.8286V121.8ZM33.8238 133.208C33.0878 133.208 32.4158 133.019 31.8078 132.64C31.2051 132.261 30.7224 131.755 30.3598 131.12C30.0024 130.48 29.8238 129.773 29.8238 129C29.8238 128.413 29.9278 127.867 30.1358 127.36C30.3438 126.848 30.6291 126.4 30.9918 126.016C31.3598 125.627 31.7864 125.323 32.2718 125.104C32.7571 124.885 33.2744 124.776 33.8238 124.776C34.5598 124.776 35.2291 124.965 35.8318 125.344C36.4398 125.723 36.9224 126.232 37.2798 126.872C37.6424 127.512 37.8238 128.221 37.8238 129C37.8238 129.581 37.7198 130.125 37.5118 130.632C37.3038 131.139 37.0158 131.587 36.6478 131.976C36.2851 132.36 35.8611 132.661 35.3758 132.88C34.8958 133.099 34.3784 133.208 33.8238 133.208ZM33.8238 131.544C34.2664 131.544 34.6638 131.427 35.0158 131.192C35.3678 130.957 35.6451 130.648 35.8478 130.264C36.0558 129.875 36.1598 129.453 36.1598 129C36.1598 128.536 36.0531 128.109 35.8398 127.72C35.6318 127.331 35.3518 127.021 34.9998 126.792C34.6478 126.557 34.2558 126.44 33.8238 126.44C33.3864 126.44 32.9891 126.557 32.6318 126.792C32.2798 127.027 31.9998 127.339 31.7918 127.728C31.5891 128.117 31.4878 128.541 31.4878 129C31.4878 129.475 31.5944 129.904 31.8078 130.288C32.0211 130.672 32.3038 130.979 32.6558 131.208C33.0131 131.432 33.4024 131.544 33.8238 131.544ZM41.5475 133.152C41.1262 133.125 40.7155 133.04 40.3155 132.896C39.9155 132.752 39.5635 132.557 39.2595 132.312C38.9608 132.061 38.7368 131.768 38.5875 131.432L40.0035 130.824C40.0728 130.968 40.1928 131.109 40.3635 131.248C40.5395 131.387 40.7448 131.501 40.9795 131.592C41.2142 131.677 41.4595 131.72 41.7155 131.72C41.9662 131.72 42.1982 131.685 42.4115 131.616C42.6302 131.541 42.8088 131.429 42.9475 131.28C43.0862 131.131 43.1555 130.952 43.1555 130.744C43.1555 130.509 43.0755 130.328 42.9155 130.2C42.7608 130.067 42.5662 129.965 42.3315 129.896C42.0968 129.827 41.8622 129.76 41.6275 129.696C41.1048 129.579 40.6248 129.419 40.1875 129.216C39.7555 129.008 39.4115 128.744 39.1555 128.424C38.8995 128.099 38.7715 127.701 38.7715 127.232C38.7715 126.72 38.9102 126.277 39.1875 125.904C39.4648 125.525 39.8275 125.235 40.2755 125.032C40.7288 124.829 41.2115 124.728 41.7235 124.728C42.3635 124.728 42.9502 124.864 43.4835 125.136C44.0168 125.408 44.4248 125.781 44.7075 126.256L43.3875 127.04C43.3075 126.88 43.1875 126.736 43.0275 126.608C42.8675 126.48 42.6862 126.379 42.4835 126.304C42.2808 126.224 42.0702 126.179 41.8515 126.168C41.5795 126.157 41.3262 126.189 41.0915 126.264C40.8622 126.333 40.6782 126.445 40.5395 126.6C40.4008 126.755 40.3315 126.952 40.3315 127.192C40.3315 127.427 40.4142 127.603 40.5795 127.72C40.7448 127.832 40.9528 127.923 41.2035 127.992C41.4595 128.061 41.7208 128.139 41.9875 128.224C42.4622 128.373 42.9075 128.557 43.3235 128.776C43.7395 128.989 44.0755 129.253 44.3315 129.568C44.5875 129.883 44.7102 130.267 44.6995 130.72C44.6995 131.221 44.5475 131.661 44.2435 132.04C43.9448 132.419 43.5555 132.707 43.0755 132.904C42.5955 133.101 42.0862 133.184 41.5475 133.152ZM47.7334 137H46.0694V125H47.7334V126.176C48 125.765 48.3414 125.432 48.7574 125.176C49.1734 124.92 49.664 124.792 50.2294 124.792C50.8107 124.792 51.3547 124.901 51.8614 125.12C52.3734 125.339 52.8214 125.643 53.2054 126.032C53.5894 126.416 53.8907 126.861 54.1094 127.368C54.328 127.875 54.4374 128.419 54.4374 129C54.4374 129.581 54.328 130.128 54.1094 130.64C53.8907 131.152 53.5894 131.603 53.2054 131.992C52.8214 132.376 52.3734 132.677 51.8614 132.896C51.3547 133.115 50.8107 133.224 50.2294 133.224C49.664 133.224 49.1734 133.096 48.7574 132.84C48.3414 132.579 48 132.245 47.7334 131.84V137ZM50.2134 126.4C49.7494 126.4 49.3414 126.517 48.9894 126.752C48.6374 126.987 48.3627 127.301 48.1654 127.696C47.968 128.085 47.8694 128.52 47.8694 129C47.8694 129.48 47.968 129.917 48.1654 130.312C48.3627 130.707 48.6374 131.021 48.9894 131.256C49.3414 131.491 49.7494 131.608 50.2134 131.608C50.672 131.608 51.0934 131.493 51.4774 131.264C51.8614 131.029 52.168 130.715 52.3974 130.32C52.6267 129.925 52.7414 129.485 52.7414 129C52.7414 128.525 52.6267 128.091 52.3974 127.696C52.1734 127.301 51.8694 126.987 51.4854 126.752C51.1014 126.517 50.6774 126.4 50.2134 126.4ZM55.585 125H57.249V133H55.585V125ZM56.433 123.84C56.177 123.84 55.9637 123.757 55.793 123.592C55.6223 123.427 55.537 123.219 55.537 122.968C55.537 122.723 55.6223 122.517 55.793 122.352C55.9637 122.181 56.1743 122.096 56.425 122.096C56.6703 122.096 56.8783 122.181 57.049 122.352C57.2197 122.517 57.305 122.723 57.305 122.968C57.305 123.219 57.2197 123.427 57.049 123.592C56.8837 123.757 56.6783 123.84 56.433 123.84ZM63.3871 126.664H61.7071L61.6991 133H60.0351L60.0431 126.664H58.7711V125H60.0431L60.0351 122.488H61.6991L61.7071 125H63.3871V126.664ZM70.8559 125H72.5199V133H70.8479L70.7839 131.84C70.5492 132.251 70.2319 132.581 69.8319 132.832C69.4319 133.083 68.9599 133.208 68.4159 133.208C67.8292 133.208 67.2772 133.099 66.7599 132.88C66.2425 132.656 65.7865 132.347 65.3919 131.952C65.0025 131.557 64.6985 131.104 64.4799 130.592C64.2612 130.075 64.1519 129.52 64.1519 128.928C64.1519 128.357 64.2585 127.821 64.4719 127.32C64.6852 126.813 64.9812 126.371 65.3599 125.992C65.7385 125.613 66.1759 125.317 66.6719 125.104C67.1732 124.885 67.7092 124.776 68.2799 124.776C68.8612 124.776 69.3732 124.909 69.8159 125.176C70.2639 125.437 70.6345 125.773 70.9279 126.184L70.8559 125ZM68.3759 131.6C68.8452 131.6 69.2559 131.485 69.6079 131.256C69.9599 131.021 70.2319 130.707 70.4239 130.312C70.6212 129.917 70.7199 129.48 70.7199 129C70.7199 128.515 70.6212 128.075 70.4239 127.68C70.2265 127.285 69.9519 126.973 69.5999 126.744C69.2532 126.509 68.8452 126.392 68.3759 126.392C67.9119 126.392 67.4879 126.509 67.1039 126.744C66.7199 126.979 66.4159 127.293 66.1919 127.688C65.9679 128.083 65.8559 128.52 65.8559 129C65.8559 129.485 65.9705 129.925 66.1999 130.32C66.4345 130.709 66.7412 131.021 67.1199 131.256C67.5039 131.485 67.9225 131.6 68.3759 131.6ZM74.1788 133V121H75.8428V133H74.1788ZM81.6006 133V121.8H83.2646V131.336H88.0886V133H81.6006ZM89.8506 125H91.5146V133H89.8506V125ZM90.6986 123.84C90.4426 123.84 90.2293 123.757 90.0586 123.592C89.888 123.427 89.8026 123.219 89.8026 122.968C89.8026 122.723 89.888 122.517 90.0586 122.352C90.2293 122.181 90.44 122.096 90.6906 122.096C90.936 122.096 91.144 122.181 91.3146 122.352C91.4853 122.517 91.5706 122.723 91.5706 122.968C91.5706 123.219 91.4853 123.427 91.3146 123.592C91.1493 123.757 90.944 123.84 90.6986 123.84ZM95.4848 123.184V125H97.7408V126.664H95.4848V133H93.8208V126.664H92.8688V125H93.8208V123.184C93.8208 122.747 93.9274 122.349 94.1408 121.992C94.3541 121.629 94.6394 121.341 94.9968 121.128C95.3594 120.915 95.7621 120.808 96.2048 120.808C96.5248 120.808 96.8368 120.872 97.1408 121C97.4448 121.128 97.7168 121.325 97.9568 121.592L96.7648 122.768C96.7061 122.672 96.6234 122.6 96.5168 122.552C96.4154 122.499 96.3114 122.472 96.2048 122.472C96.0074 122.472 95.8368 122.541 95.6928 122.68C95.5541 122.819 95.4848 122.987 95.4848 123.184ZM103.528 126.664H101.848L101.84 133H100.176L100.184 126.664H98.9118V125H100.184L100.176 122.488H101.84L101.848 125H103.528V126.664Z" fill="white"/>
<path d="M198.918 21.208C198.139 21.208 197.414 21.0587 196.742 20.76C196.075 20.456 195.491 20.0373 194.99 19.504C194.494 18.9653 194.104 18.344 193.822 17.64C193.544 16.936 193.406 16.1867 193.406 15.392C193.406 14.5547 193.555 13.784 193.854 13.08C194.152 12.376 194.56 11.7653 195.078 11.248C195.595 10.7253 196.184 10.32 196.846 10.032C197.512 9.744 198.211 9.6 198.942 9.6C199.768 9.6 200.563 9.792 201.326 10.176C202.088 10.56 202.752 11.136 203.318 11.904L201.83 12.712C201.446 12.232 200.998 11.8693 200.486 11.624C199.979 11.3787 199.459 11.256 198.926 11.256C198.408 11.256 197.918 11.3627 197.454 11.576C196.99 11.784 196.579 12.0773 196.222 12.456C195.864 12.8293 195.582 13.2693 195.374 13.776C195.171 14.2773 195.07 14.824 195.07 15.416C195.07 15.9867 195.168 16.5227 195.366 17.024C195.568 17.5253 195.846 17.9653 196.198 18.344C196.555 18.7173 196.966 19.0107 197.43 19.224C197.899 19.4373 198.4 19.544 198.934 19.544C199.328 19.544 199.707 19.48 200.07 19.352C200.432 19.224 200.768 19.0427 201.078 18.808C201.392 18.568 201.667 18.2827 201.902 17.952C202.136 17.6213 202.323 17.2533 202.462 16.848H200.086V15.376H204.414C204.424 16.176 204.286 16.928 203.998 17.632C203.715 18.336 203.32 18.9573 202.814 19.496C202.312 20.0293 201.728 20.448 201.062 20.752C200.395 21.056 199.68 21.208 198.918 21.208ZM209.324 21.208C208.588 21.208 207.916 21.0187 207.308 20.64C206.705 20.2613 206.222 19.7547 205.86 19.12C205.502 18.48 205.324 17.7733 205.324 17C205.324 16.4133 205.428 15.8667 205.636 15.36C205.844 14.848 206.129 14.4 206.492 14.016C206.86 13.6267 207.286 13.3227 207.772 13.104C208.257 12.8853 208.774 12.776 209.324 12.776C209.937 12.776 210.5 12.904 211.012 13.16C211.524 13.4107 211.961 13.76 212.324 14.208C212.686 14.6507 212.953 15.1627 213.124 15.744C213.294 16.32 213.345 16.9333 213.276 17.584H207.108C207.177 17.952 207.31 18.2853 207.508 18.584C207.71 18.8773 207.966 19.1093 208.276 19.28C208.59 19.4507 208.94 19.5387 209.324 19.544C209.729 19.544 210.097 19.4427 210.428 19.24C210.764 19.0373 211.038 18.7573 211.252 18.4L212.94 18.792C212.62 19.5013 212.137 20.0827 211.492 20.536C210.846 20.984 210.124 21.208 209.324 21.208ZM207.052 16.312H211.596C211.542 15.928 211.406 15.5813 211.188 15.272C210.974 14.9573 210.705 14.7093 210.38 14.528C210.06 14.3413 209.708 14.248 209.324 14.248C208.945 14.248 208.593 14.3387 208.268 14.52C207.948 14.7013 207.681 14.9493 207.468 15.264C207.26 15.5733 207.121 15.9227 207.052 16.312ZM220.809 13H222.473V21H220.801L220.737 19.84C220.502 20.2507 220.185 20.5813 219.785 20.832C219.385 21.0827 218.913 21.208 218.369 21.208C217.782 21.208 217.23 21.0987 216.713 20.88C216.196 20.656 215.74 20.3467 215.345 19.952C214.956 19.5573 214.652 19.104 214.433 18.592C214.214 18.0747 214.105 17.52 214.105 16.928C214.105 16.3573 214.212 15.8213 214.425 15.32C214.638 14.8133 214.934 14.3707 215.313 13.992C215.692 13.6133 216.129 13.3173 216.625 13.104C217.126 12.8853 217.662 12.776 218.233 12.776C218.814 12.776 219.326 12.9093 219.769 13.176C220.217 13.4373 220.588 13.7733 220.881 14.184L220.809 13ZM218.329 19.6C218.798 19.6 219.209 19.4853 219.561 19.256C219.913 19.0213 220.185 18.7067 220.377 18.312C220.574 17.9173 220.673 17.48 220.673 17C220.673 16.5147 220.574 16.0747 220.377 15.68C220.18 15.2853 219.905 14.9733 219.553 14.744C219.206 14.5093 218.798 14.392 218.329 14.392C217.865 14.392 217.441 14.5093 217.057 14.744C216.673 14.9787 216.369 15.2933 216.145 15.688C215.921 16.0827 215.809 16.52 215.809 17C215.809 17.4853 215.924 17.9253 216.153 18.32C216.388 18.7093 216.694 19.0213 217.073 19.256C217.457 19.4853 217.876 19.6 218.329 19.6ZM224.069 21V13H225.733V13.848C226.011 13.5173 226.352 13.256 226.757 13.064C227.163 12.872 227.6 12.776 228.069 12.776C228.368 12.776 228.664 12.816 228.957 12.896L228.293 14.576C228.085 14.496 227.877 14.456 227.669 14.456C227.317 14.456 226.995 14.544 226.701 14.72C226.408 14.8907 226.173 15.1227 225.997 15.416C225.821 15.7093 225.733 16.0347 225.733 16.392V21H224.069ZM233.027 21.208C232.291 21.208 231.619 21.0187 231.011 20.64C230.408 20.2613 229.926 19.7547 229.563 19.12C229.206 18.48 229.027 17.7733 229.027 17C229.027 16.4133 229.131 15.8667 229.339 15.36C229.547 14.848 229.832 14.4 230.195 14.016C230.563 13.6267 230.99 13.3227 231.475 13.104C231.96 12.8853 232.478 12.776 233.027 12.776C233.64 12.776 234.203 12.904 234.715 13.16C235.227 13.4107 235.664 13.76 236.027 14.208C236.39 14.6507 236.656 15.1627 236.827 15.744C236.998 16.32 237.048 16.9333 236.979 17.584H230.811C230.88 17.952 231.014 18.2853 231.211 18.584C231.414 18.8773 231.67 19.1093 231.979 19.28C232.294 19.4507 232.643 19.5387 233.027 19.544C233.432 19.544 233.8 19.4427 234.131 19.24C234.467 19.0373 234.742 18.7573 234.955 18.4L236.643 18.792C236.323 19.5013 235.84 20.0827 235.195 20.536C234.55 20.984 233.827 21.208 233.027 21.208ZM230.755 16.312H235.299C235.246 15.928 235.11 15.5813 234.891 15.272C234.678 14.9573 234.408 14.7093 234.083 14.528C233.763 14.3413 233.411 14.248 233.027 14.248C232.648 14.248 232.296 14.3387 231.971 14.52C231.651 14.7013 231.384 14.9493 231.171 15.264C230.963 15.5733 230.824 15.9227 230.755 16.312ZM244.52 9H246.184V21H244.52V19.824C244.259 20.24 243.917 20.576 243.496 20.832C243.075 21.0827 242.581 21.208 242.016 21.208C241.435 21.208 240.891 21.0987 240.384 20.88C239.877 20.6613 239.429 20.36 239.04 19.976C238.656 19.5867 238.355 19.1387 238.136 18.632C237.917 18.1253 237.808 17.5813 237.808 17C237.808 16.4187 237.917 15.8747 238.136 15.368C238.355 14.856 238.656 14.408 239.04 14.024C239.429 13.6347 239.877 13.3307 240.384 13.112C240.891 12.8933 241.435 12.784 242.016 12.784C242.581 12.784 243.075 12.912 243.496 13.168C243.917 13.4187 244.259 13.7493 244.52 14.16V9ZM242.032 19.6C242.501 19.6 242.912 19.4853 243.264 19.256C243.616 19.0213 243.888 18.7067 244.08 18.312C244.277 17.9173 244.376 17.48 244.376 17C244.376 16.5147 244.277 16.0747 244.08 15.68C243.883 15.2853 243.608 14.9733 243.256 14.744C242.909 14.5093 242.501 14.392 242.032 14.392C241.568 14.392 241.144 14.5093 240.76 14.744C240.381 14.9787 240.077 15.2933 239.848 15.688C239.624 16.0827 239.512 16.52 239.512 17C239.512 17.4853 239.627 17.9253 239.856 18.32C240.091 18.7093 240.397 19.0213 240.776 19.256C241.16 19.4853 241.579 19.6 242.032 19.6ZM260.416 9.8V11.464H256.848V21H255.184V11.464H251.624V9.8H260.416ZM260.866 21V13H262.53V13.848C262.808 13.5173 263.149 13.256 263.554 13.064C263.96 12.872 264.397 12.776 264.866 12.776C265.165 12.776 265.461 12.816 265.754 12.896L265.09 14.576C264.882 14.496 264.674 14.456 264.466 14.456C264.114 14.456 263.792 14.544 263.498 14.72C263.205 14.8907 262.97 15.1227 262.794 15.416C262.618 15.7093 262.53 16.0347 262.53 16.392V21H260.866ZM272.528 13H274.192V21H272.52L272.456 19.84C272.221 20.2507 271.904 20.5813 271.504 20.832C271.104 21.0827 270.632 21.208 270.088 21.208C269.501 21.208 268.949 21.0987 268.432 20.88C267.914 20.656 267.458 20.3467 267.064 19.952C266.674 19.5573 266.37 19.104 266.152 18.592C265.933 18.0747 265.824 17.52 265.824 16.928C265.824 16.3573 265.93 15.8213 266.144 15.32C266.357 14.8133 266.653 14.3707 267.032 13.992C267.41 13.6133 267.848 13.3173 268.344 13.104C268.845 12.8853 269.381 12.776 269.952 12.776C270.533 12.776 271.045 12.9093 271.488 13.176C271.936 13.4373 272.306 13.7733 272.6 14.184L272.528 13ZM270.048 19.6C270.517 19.6 270.928 19.4853 271.28 19.256C271.632 19.0213 271.904 18.7067 272.096 18.312C272.293 17.9173 272.392 17.48 272.392 17C272.392 16.5147 272.293 16.0747 272.096 15.68C271.898 15.2853 271.624 14.9733 271.272 14.744C270.925 14.5093 270.517 14.392 270.048 14.392C269.584 14.392 269.16 14.5093 268.776 14.744C268.392 14.9787 268.088 15.2933 267.864 15.688C267.64 16.0827 267.528 16.52 267.528 17C267.528 17.4853 267.642 17.9253 267.872 18.32C268.106 18.7093 268.413 19.0213 268.792 19.256C269.176 19.4853 269.594 19.6 270.048 19.6ZM280.856 18.728L282.344 19.536C281.981 20.0427 281.52 20.448 280.96 20.752C280.405 21.056 279.803 21.208 279.152 21.208C278.416 21.208 277.744 21.0187 277.136 20.64C276.533 20.2613 276.051 19.7547 275.688 19.12C275.331 18.48 275.152 17.7733 275.152 17C275.152 16.4133 275.256 15.8667 275.464 15.36C275.672 14.848 275.957 14.4 276.32 14.016C276.688 13.6267 277.115 13.3227 277.6 13.104C278.085 12.8853 278.603 12.776 279.152 12.776C279.803 12.776 280.405 12.928 280.96 13.232C281.52 13.536 281.981 13.944 282.344 14.456L280.856 15.264C280.632 14.9973 280.371 14.7947 280.072 14.656C279.773 14.512 279.467 14.44 279.152 14.44C278.715 14.44 278.317 14.56 277.96 14.8C277.608 15.0347 277.328 15.3467 277.12 15.736C276.917 16.12 276.816 16.5413 276.816 17C276.816 17.4533 276.92 17.8747 277.128 18.264C277.336 18.648 277.616 18.9573 277.968 19.192C278.325 19.4267 278.72 19.544 279.152 19.544C279.483 19.544 279.797 19.4693 280.096 19.32C280.395 19.1707 280.648 18.9733 280.856 18.728ZM288.012 14.664H286.332L286.324 21H284.66L284.668 14.664H283.396V13H284.668L284.66 10.488H286.324L286.332 13H288.012V14.664ZM289.335 13H290.999V21H289.335V13ZM290.183 11.84C289.927 11.84 289.714 11.7573 289.543 11.592C289.372 11.4267 289.287 11.2187 289.287 10.968C289.287 10.7227 289.372 10.5173 289.543 10.352C289.714 10.1813 289.924 10.096 290.175 10.096C290.42 10.096 290.628 10.1813 290.799 10.352C290.97 10.5173 291.055 10.7227 291.055 10.968C291.055 11.2187 290.97 11.4267 290.799 11.592C290.634 11.7573 290.428 11.84 290.183 11.84ZM296.293 21.208C295.557 21.208 294.885 21.0187 294.277 20.64C293.674 20.2613 293.191 19.7547 292.829 19.12C292.471 18.48 292.293 17.7733 292.293 17C292.293 16.4133 292.397 15.8667 292.605 15.36C292.813 14.848 293.098 14.4 293.461 14.016C293.829 13.6267 294.255 13.3227 294.741 13.104C295.226 12.8853 295.743 12.776 296.293 12.776C297.029 12.776 297.698 12.9653 298.301 13.344C298.909 13.7227 299.391 14.232 299.749 14.872C300.111 15.512 300.293 16.2213 300.293 17C300.293 17.5813 300.189 18.1253 299.981 18.632C299.773 19.1387 299.485 19.5867 299.117 19.976C298.754 20.36 298.33 20.6613 297.845 20.88C297.365 21.0987 296.847 21.208 296.293 21.208ZM296.293 19.544C296.735 19.544 297.133 19.4267 297.485 19.192C297.837 18.9573 298.114 18.648 298.317 18.264C298.525 17.8747 298.629 17.4533 298.629 17C298.629 16.536 298.522 16.1093 298.309 15.72C298.101 15.3307 297.821 15.0213 297.469 14.792C297.117 14.5573 296.725 14.44 296.293 14.44C295.855 14.44 295.458 14.5573 295.101 14.792C294.749 15.0267 294.469 15.3387 294.261 15.728C294.058 16.1173 293.957 16.5413 293.957 17C293.957 17.4747 294.063 17.904 294.277 18.288C294.49 18.672 294.773 18.9787 295.125 19.208C295.482 19.432 295.871 19.544 296.293 19.544ZM308.785 15.984V21H307.121V16.392C307.121 16.0347 307.033 15.7093 306.857 15.416C306.686 15.1227 306.454 14.8907 306.161 14.72C305.873 14.544 305.548 14.456 305.185 14.456C304.833 14.456 304.51 14.544 304.217 14.72C303.924 14.8907 303.689 15.1227 303.513 15.416C303.337 15.7093 303.249 16.0347 303.249 16.392V21H301.585V13H303.249V13.848C303.526 13.5173 303.868 13.256 304.273 13.064C304.678 12.872 305.116 12.776 305.585 12.776C306.177 12.776 306.716 12.92 307.201 13.208C307.686 13.496 308.07 13.8827 308.353 14.368C308.641 14.8533 308.785 15.392 308.785 15.984ZM318.082 21H316.426L313.746 13H315.378L317.266 18.616L319.138 13H320.818L322.69 18.616L324.57 13H326.202L323.53 21H321.858L319.97 15.344L318.082 21ZM327.444 13H329.108V21H327.444V13ZM328.292 11.84C328.036 11.84 327.823 11.7573 327.652 11.592C327.482 11.4267 327.396 11.2187 327.396 10.968C327.396 10.7227 327.482 10.5173 327.652 10.352C327.823 10.1813 328.034 10.096 328.284 10.096C328.53 10.096 328.738 10.1813 328.908 10.352C329.079 10.5173 329.164 10.7227 329.164 10.968C329.164 11.2187 329.079 11.4267 328.908 11.592C328.743 11.7573 328.538 11.84 328.292 11.84ZM335.247 14.664H333.567L333.559 21H331.895L331.903 14.664H330.631V13H331.903L331.895 10.488H333.559L333.567 13H335.247V14.664ZM343.879 15.984V21H342.215V16.392C342.215 16.0347 342.127 15.7093 341.951 15.416C341.78 15.1227 341.548 14.8907 341.255 14.72C340.967 14.544 340.641 14.456 340.279 14.456C339.927 14.456 339.604 14.544 339.311 14.72C339.017 14.8907 338.783 15.1227 338.607 15.416C338.431 15.7093 338.343 16.0347 338.343 16.392V21H336.679V9H338.343V13.848C338.62 13.5173 338.961 13.256 339.367 13.064C339.772 12.872 340.209 12.776 340.679 12.776C341.271 12.776 341.809 12.92 342.295 13.208C342.78 13.496 343.164 13.8827 343.447 14.368C343.735 14.8533 343.879 15.392 343.879 15.984ZM349.319 21L351.487 9.8H352.831L355.703 17.344L358.559 9.8H359.903L362.079 21H360.383L358.935 13.504L356.255 20.576H355.135L352.463 13.504L351.015 21H349.319ZM369.45 13H371.114V21H369.442L369.378 19.84C369.143 20.2507 368.826 20.5813 368.426 20.832C368.026 21.0827 367.554 21.208 367.01 21.208C366.423 21.208 365.871 21.0987 365.354 20.88C364.836 20.656 364.38 20.3467 363.986 19.952C363.596 19.5573 363.292 19.104 363.074 18.592C362.855 18.0747 362.746 17.52 362.746 16.928C362.746 16.3573 362.852 15.8213 363.066 15.32C363.279 14.8133 363.575 14.3707 363.954 13.992C364.332 13.6133 364.77 13.3173 365.266 13.104C365.767 12.8853 366.303 12.776 366.874 12.776C367.455 12.776 367.967 12.9093 368.41 13.176C368.858 13.4373 369.228 13.7733 369.522 14.184L369.45 13ZM366.97 19.6C367.439 19.6 367.85 19.4853 368.202 19.256C368.554 19.0213 368.826 18.7067 369.018 18.312C369.215 17.9173 369.314 17.48 369.314 17C369.314 16.5147 369.215 16.0747 369.018 15.68C368.82 15.2853 368.546 14.9733 368.194 14.744C367.847 14.5093 367.439 14.392 366.97 14.392C366.506 14.392 366.082 14.5093 365.698 14.744C365.314 14.9787 365.01 15.2933 364.786 15.688C364.562 16.0827 364.45 16.52 364.45 17C364.45 17.4853 364.564 17.9253 364.794 18.32C365.028 18.7093 365.335 19.0213 365.714 19.256C366.098 19.4853 366.516 19.6 366.97 19.6ZM377.778 18.728L379.266 19.536C378.903 20.0427 378.442 20.448 377.882 20.752C377.327 21.056 376.724 21.208 376.074 21.208C375.338 21.208 374.666 21.0187 374.058 20.64C373.455 20.2613 372.972 19.7547 372.61 19.12C372.252 18.48 372.074 17.7733 372.074 17C372.074 16.4133 372.178 15.8667 372.386 15.36C372.594 14.848 372.879 14.4 373.242 14.016C373.61 13.6267 374.036 13.3227 374.522 13.104C375.007 12.8853 375.524 12.776 376.074 12.776C376.724 12.776 377.327 12.928 377.882 13.232C378.442 13.536 378.903 13.944 379.266 14.456L377.778 15.264C377.554 14.9973 377.292 14.7947 376.994 14.656C376.695 14.512 376.388 14.44 376.074 14.44C375.636 14.44 375.239 14.56 374.882 14.8C374.53 15.0347 374.25 15.3467 374.042 15.736C373.839 16.12 373.738 16.5413 373.738 17C373.738 17.4533 373.842 17.8747 374.05 18.264C374.258 18.648 374.538 18.9573 374.89 19.192C375.247 19.4267 375.642 19.544 376.074 19.544C376.404 19.544 376.719 19.4693 377.018 19.32C377.316 19.1707 377.57 18.9733 377.778 18.728ZM387.707 15.984V21H386.043V16.392C386.043 16.0347 385.955 15.7093 385.779 15.416C385.608 15.1227 385.376 14.8907 385.083 14.72C384.795 14.544 384.47 14.456 384.107 14.456C383.755 14.456 383.432 14.544 383.139 14.72C382.846 14.8907 382.611 15.1227 382.435 15.416C382.259 15.7093 382.171 16.0347 382.171 16.392V21H380.507V9H382.171V13.848C382.448 13.5173 382.79 13.256 383.195 13.064C383.6 12.872 384.038 12.776 384.507 12.776C385.099 12.776 385.638 12.92 386.123 13.208C386.608 13.496 386.992 13.8827 387.275 14.368C387.563 14.8533 387.707 15.392 387.707 15.984ZM389.304 13H390.968V21H389.304V13ZM390.152 11.84C389.896 11.84 389.682 11.7573 389.512 11.592C389.341 11.4267 389.256 11.2187 389.256 10.968C389.256 10.7227 389.341 10.5173 389.512 10.352C389.682 10.1813 389.893 10.096 390.144 10.096C390.389 10.096 390.597 10.1813 390.768 10.352C390.938 10.5173 391.024 10.7227 391.024 10.968C391.024 11.2187 390.938 11.4267 390.768 11.592C390.602 11.7573 390.397 11.84 390.152 11.84ZM400.019 15.984V21H398.355V16.392C398.355 16.0347 398.267 15.7093 398.091 15.416C397.921 15.1227 397.689 14.8907 397.395 14.72C397.107 14.544 396.782 14.456 396.419 14.456C396.067 14.456 395.745 14.544 395.451 14.72C395.158 14.8907 394.923 15.1227 394.747 15.416C394.571 15.7093 394.483 16.0347 394.483 16.392V21H392.819V13H394.483V13.848C394.761 13.5173 395.102 13.256 395.507 13.064C395.913 12.872 396.35 12.776 396.819 12.776C397.411 12.776 397.95 12.92 398.435 13.208C398.921 13.496 399.305 13.8827 399.587 14.368C399.875 14.8533 400.019 15.392 400.019 15.984ZM404.98 21.208C404.244 21.208 403.572 21.0187 402.964 20.64C402.361 20.2613 401.879 19.7547 401.516 19.12C401.159 18.48 400.98 17.7733 400.98 17C400.98 16.4133 401.084 15.8667 401.292 15.36C401.5 14.848 401.785 14.4 402.148 14.016C402.516 13.6267 402.943 13.3227 403.428 13.104C403.913 12.8853 404.431 12.776 404.98 12.776C405.593 12.776 406.156 12.904 406.668 13.16C407.18 13.4107 407.617 13.76 407.98 14.208C408.343 14.6507 408.609 15.1627 408.78 15.744C408.951 16.32 409.001 16.9333 408.932 17.584H402.764C402.833 17.952 402.967 18.2853 403.164 18.584C403.367 18.8773 403.623 19.1093 403.932 19.28C404.247 19.4507 404.596 19.5387 404.98 19.544C405.385 19.544 405.753 19.4427 406.084 19.24C406.42 19.0373 406.695 18.7573 406.908 18.4L408.596 18.792C408.276 19.5013 407.793 20.0827 407.148 20.536C406.503 20.984 405.78 21.208 404.98 21.208ZM402.708 16.312H407.252C407.199 15.928 407.063 15.5813 406.844 15.272C406.631 14.9573 406.361 14.7093 406.036 14.528C405.716 14.3413 405.364 14.248 404.98 14.248C404.601 14.248 404.249 14.3387 403.924 14.52C403.604 14.7013 403.337 14.9493 403.124 15.264C402.916 15.5733 402.777 15.9227 402.708 16.312ZM414.241 21V9.8H418.361C418.969 9.8 419.516 9.94933 420.001 10.248C420.487 10.5467 420.871 10.9493 421.153 11.456C421.441 11.9573 421.585 12.5173 421.585 13.136C421.585 13.6587 421.487 14.136 421.289 14.568C421.097 15 420.825 15.368 420.473 15.672C420.127 15.976 419.729 16.1947 419.281 16.328L421.985 21H420.057L417.433 16.48H415.905V21H414.241ZM415.905 14.816H418.185C418.505 14.816 418.796 14.736 419.057 14.576C419.324 14.416 419.535 14.2027 419.689 13.936C419.844 13.6693 419.921 13.368 419.921 13.032C419.921 12.696 419.844 12.3947 419.689 12.128C419.535 11.856 419.324 11.6427 419.057 11.488C418.796 11.328 418.505 11.248 418.185 11.248H415.905V14.816ZM426.652 21.208C425.916 21.208 425.244 21.0187 424.636 20.64C424.033 20.2613 423.551 19.7547 423.188 19.12C422.831 18.48 422.652 17.7733 422.652 17C422.652 16.4133 422.756 15.8667 422.964 15.36C423.172 14.848 423.457 14.4 423.82 14.016C424.188 13.6267 424.615 13.3227 425.1 13.104C425.585 12.8853 426.103 12.776 426.652 12.776C427.388 12.776 428.057 12.9653 428.66 13.344C429.268 13.7227 429.751 14.232 430.108 14.872C430.471 15.512 430.652 16.2213 430.652 17C430.652 17.5813 430.548 18.1253 430.34 18.632C430.132 19.1387 429.844 19.5867 429.476 19.976C429.113 20.36 428.689 20.6613 428.204 20.88C427.724 21.0987 427.207 21.208 426.652 21.208ZM426.652 19.544C427.095 19.544 427.492 19.4267 427.844 19.192C428.196 18.9573 428.473 18.648 428.676 18.264C428.884 17.8747 428.988 17.4533 428.988 17C428.988 16.536 428.881 16.1093 428.668 15.72C428.46 15.3307 428.18 15.0213 427.828 14.792C427.476 14.5573 427.084 14.44 426.652 14.44C426.215 14.44 425.817 14.5573 425.46 14.792C425.108 15.0267 424.828 15.3387 424.62 15.728C424.417 16.1173 424.316 16.5413 424.316 17C424.316 17.4747 424.423 17.904 424.636 18.288C424.849 18.672 425.132 18.9787 425.484 19.208C425.841 19.432 426.231 19.544 426.652 19.544ZM435.449 21.208C434.713 21.208 434.041 21.0187 433.433 20.64C432.83 20.2613 432.347 19.7547 431.985 19.12C431.627 18.48 431.449 17.7733 431.449 17C431.449 16.4133 431.553 15.8667 431.761 15.36C431.969 14.848 432.254 14.4 432.617 14.016C432.985 13.6267 433.411 13.3227 433.897 13.104C434.382 12.8853 434.899 12.776 435.449 12.776C436.185 12.776 436.854 12.9653 437.457 13.344C438.065 13.7227 438.547 14.232 438.905 14.872C439.267 15.512 439.449 16.2213 439.449 17C439.449 17.5813 439.345 18.1253 439.137 18.632C438.929 19.1387 438.641 19.5867 438.273 19.976C437.91 20.36 437.486 20.6613 437.001 20.88C436.521 21.0987 436.003 21.208 435.449 21.208ZM435.449 19.544C435.891 19.544 436.289 19.4267 436.641 19.192C436.993 18.9573 437.27 18.648 437.473 18.264C437.681 17.8747 437.785 17.4533 437.785 17C437.785 16.536 437.678 16.1093 437.465 15.72C437.257 15.3307 436.977 15.0213 436.625 14.792C436.273 14.5573 435.881 14.44 435.449 14.44C435.011 14.44 434.614 14.5573 434.257 14.792C433.905 15.0267 433.625 15.3387 433.417 15.728C433.214 16.1173 433.113 16.5413 433.113 17C433.113 17.4747 433.219 17.904 433.433 18.288C433.646 18.672 433.929 18.9787 434.281 19.208C434.638 19.432 435.027 19.544 435.449 19.544ZM440.741 21V13H442.405V13.848C442.683 13.5173 443.021 13.256 443.421 13.064C443.827 12.872 444.264 12.776 444.733 12.776C445.304 12.776 445.829 12.9147 446.309 13.192C446.789 13.464 447.171 13.8267 447.453 14.28C447.736 13.8267 448.112 13.464 448.581 13.192C449.056 12.9147 449.579 12.776 450.149 12.776C450.741 12.776 451.28 12.92 451.765 13.208C452.251 13.496 452.637 13.8827 452.925 14.368C453.213 14.8533 453.357 15.392 453.357 15.984V21H451.693V16.408C451.693 16.056 451.608 15.7333 451.437 15.44C451.267 15.1467 451.037 14.9093 450.749 14.728C450.461 14.5467 450.141 14.456 449.789 14.456C449.437 14.456 449.117 14.5413 448.829 14.712C448.541 14.8827 448.312 15.1147 448.141 15.408C447.971 15.7013 447.885 16.0347 447.885 16.408V21H446.221V16.408C446.221 16.0347 446.136 15.7013 445.965 15.408C445.795 15.1147 445.563 14.8827 445.269 14.712C444.981 14.5413 444.661 14.456 444.309 14.456C443.963 14.456 443.643 14.5467 443.349 14.728C443.061 14.9093 442.832 15.1467 442.661 15.44C442.491 15.7333 442.405 16.056 442.405 16.408V21H440.741Z" fill="white"/>
<path d="M200.011 78.208C199.233 78.208 198.507 78.0587 197.835 77.76C197.169 77.456 196.585 77.0373 196.083 76.504C195.587 75.9653 195.198 75.344 194.915 74.64C194.638 73.936 194.499 73.1867 194.499 72.392C194.499 71.5547 194.649 70.784 194.947 70.08C195.246 69.376 195.654 68.7653 196.171 68.248C196.689 67.7253 197.278 67.32 197.939 67.032C198.606 66.744 199.305 66.6 200.035 66.6C200.862 66.6 201.657 66.792 202.419 67.176C203.182 67.56 203.846 68.136 204.411 68.904L202.923 69.712C202.539 69.232 202.091 68.8693 201.579 68.624C201.073 68.3787 200.553 68.256 200.019 68.256C199.502 68.256 199.011 68.3627 198.547 68.576C198.083 68.784 197.673 69.0773 197.315 69.456C196.958 69.8293 196.675 70.2693 196.467 70.776C196.265 71.2773 196.163 71.824 196.163 72.416C196.163 72.9867 196.262 73.5227 196.459 74.024C196.662 74.5253 196.939 74.9653 197.291 75.344C197.649 75.7173 198.059 76.0107 198.523 76.224C198.993 76.4373 199.494 76.544 200.027 76.544C200.422 76.544 200.801 76.48 201.163 76.352C201.526 76.224 201.862 76.0427 202.171 75.808C202.486 75.568 202.761 75.2827 202.995 74.952C203.23 74.6213 203.417 74.2533 203.555 73.848H201.179V72.376H205.507C205.518 73.176 205.379 73.928 205.091 74.632C204.809 75.336 204.414 75.9573 203.907 76.496C203.406 77.0293 202.822 77.448 202.155 77.752C201.489 78.056 200.774 78.208 200.011 78.208ZM210.418 78.208C209.682 78.208 209.01 78.0187 208.402 77.64C207.799 77.2613 207.316 76.7547 206.954 76.12C206.596 75.48 206.418 74.7733 206.418 74C206.418 73.4133 206.522 72.8667 206.73 72.36C206.938 71.848 207.223 71.4 207.586 71.016C207.954 70.6267 208.38 70.3227 208.866 70.104C209.351 69.8853 209.868 69.776 210.418 69.776C211.031 69.776 211.594 69.904 212.106 70.16C212.618 70.4107 213.055 70.76 213.418 71.208C213.78 71.6507 214.047 72.1627 214.218 72.744C214.388 73.32 214.439 73.9333 214.37 74.584H208.202C208.271 74.952 208.404 75.2853 208.602 75.584C208.804 75.8773 209.06 76.1093 209.37 76.28C209.684 76.4507 210.034 76.5387 210.418 76.544C210.823 76.544 211.191 76.4427 211.522 76.24C211.858 76.0373 212.132 75.7573 212.346 75.4L214.034 75.792C213.714 76.5013 213.231 77.0827 212.586 77.536C211.94 77.984 211.218 78.208 210.418 78.208ZM208.146 73.312H212.69C212.636 72.928 212.5 72.5813 212.282 72.272C212.068 71.9573 211.799 71.7093 211.474 71.528C211.154 71.3413 210.802 71.248 210.418 71.248C210.039 71.248 209.687 71.3387 209.362 71.52C209.042 71.7013 208.775 71.9493 208.562 72.264C208.354 72.5733 208.215 72.9227 208.146 73.312ZM221.903 70H223.567V78H221.895L221.831 76.84C221.596 77.2507 221.279 77.5813 220.879 77.832C220.479 78.0827 220.007 78.208 219.463 78.208C218.876 78.208 218.324 78.0987 217.807 77.88C217.289 77.656 216.833 77.3467 216.439 76.952C216.049 76.5573 215.745 76.104 215.527 75.592C215.308 75.0747 215.199 74.52 215.199 73.928C215.199 73.3573 215.305 72.8213 215.519 72.32C215.732 71.8133 216.028 71.3707 216.407 70.992C216.785 70.6133 217.223 70.3173 217.719 70.104C218.22 69.8853 218.756 69.776 219.327 69.776C219.908 69.776 220.42 69.9093 220.863 70.176C221.311 70.4373 221.681 70.7733 221.975 71.184L221.903 70ZM219.423 76.6C219.892 76.6 220.303 76.4853 220.655 76.256C221.007 76.0213 221.279 75.7067 221.471 75.312C221.668 74.9173 221.767 74.48 221.767 74C221.767 73.5147 221.668 73.0747 221.471 72.68C221.273 72.2853 220.999 71.9733 220.647 71.744C220.3 71.5093 219.892 71.392 219.423 71.392C218.959 71.392 218.535 71.5093 218.151 71.744C217.767 71.9787 217.463 72.2933 217.239 72.688C217.015 73.0827 216.903 73.52 216.903 74C216.903 74.4853 217.017 74.9253 217.247 75.32C217.481 75.7093 217.788 76.0213 218.167 76.256C218.551 76.4853 218.969 76.6 219.423 76.6ZM225.163 78V70H226.827V70.848C227.104 70.5173 227.446 70.256 227.851 70.064C228.256 69.872 228.694 69.776 229.163 69.776C229.462 69.776 229.758 69.816 230.051 69.896L229.387 71.576C229.179 71.496 228.971 71.456 228.763 71.456C228.411 71.456 228.088 71.544 227.795 71.72C227.502 71.8907 227.267 72.1227 227.091 72.416C226.915 72.7093 226.827 73.0347 226.827 73.392V78H225.163ZM230.96 78V66H232.624V78H230.96ZM237.949 78.208C237.213 78.208 236.541 78.0187 235.933 77.64C235.33 77.2613 234.847 76.7547 234.485 76.12C234.127 75.48 233.949 74.7733 233.949 74C233.949 73.4133 234.053 72.8667 234.261 72.36C234.469 71.848 234.754 71.4 235.117 71.016C235.485 70.6267 235.911 70.3227 236.397 70.104C236.882 69.8853 237.399 69.776 237.949 69.776C238.562 69.776 239.125 69.904 239.637 70.16C240.149 70.4107 240.586 70.76 240.949 71.208C241.311 71.6507 241.578 72.1627 241.749 72.744C241.919 73.32 241.97 73.9333 241.901 74.584H235.733C235.802 74.952 235.935 75.2853 236.133 75.584C236.335 75.8773 236.591 76.1093 236.901 76.28C237.215 76.4507 237.565 76.5387 237.949 76.544C238.354 76.544 238.722 76.4427 239.053 76.24C239.389 76.0373 239.663 75.7573 239.877 75.4L241.565 75.792C241.245 76.5013 240.762 77.0827 240.117 77.536C239.471 77.984 238.749 78.208 237.949 78.208ZM235.677 73.312H240.221C240.167 72.928 240.031 72.5813 239.813 72.272C239.599 71.9573 239.33 71.7093 239.005 71.528C238.685 71.3413 238.333 71.248 237.949 71.248C237.57 71.248 237.218 71.3387 236.893 71.52C236.573 71.7013 236.306 71.9493 236.093 72.264C235.885 72.5733 235.746 72.9227 235.677 73.312ZM245.657 78.152C245.236 78.1253 244.825 78.04 244.425 77.896C244.025 77.752 243.673 77.5573 243.369 77.312C243.07 77.0613 242.846 76.768 242.697 76.432L244.113 75.824C244.182 75.968 244.302 76.1093 244.473 76.248C244.649 76.3867 244.854 76.5013 245.089 76.592C245.324 76.6773 245.569 76.72 245.825 76.72C246.076 76.72 246.308 76.6853 246.521 76.616C246.74 76.5413 246.918 76.4293 247.057 76.28C247.196 76.1307 247.265 75.952 247.265 75.744C247.265 75.5093 247.185 75.328 247.025 75.2C246.87 75.0667 246.676 74.9653 246.441 74.896C246.206 74.8267 245.972 74.76 245.737 74.696C245.214 74.5787 244.734 74.4187 244.297 74.216C243.865 74.008 243.521 73.744 243.265 73.424C243.009 73.0987 242.881 72.7013 242.881 72.232C242.881 71.72 243.02 71.2773 243.297 70.904C243.574 70.5253 243.937 70.2347 244.385 70.032C244.838 69.8293 245.321 69.728 245.833 69.728C246.473 69.728 247.06 69.864 247.593 70.136C248.126 70.408 248.534 70.7813 248.817 71.256L247.497 72.04C247.417 71.88 247.297 71.736 247.137 71.608C246.977 71.48 246.796 71.3787 246.593 71.304C246.39 71.224 246.18 71.1787 245.961 71.168C245.689 71.1573 245.436 71.1893 245.201 71.264C244.972 71.3333 244.788 71.4453 244.649 71.6C244.51 71.7547 244.441 71.952 244.441 72.192C244.441 72.4267 244.524 72.6027 244.689 72.72C244.854 72.832 245.062 72.9227 245.313 72.992C245.569 73.0613 245.83 73.1387 246.097 73.224C246.572 73.3733 247.017 73.5573 247.433 73.776C247.849 73.9893 248.185 74.2533 248.441 74.568C248.697 74.8827 248.82 75.2667 248.809 75.72C248.809 76.2213 248.657 76.6613 248.353 77.04C248.054 77.4187 247.665 77.7067 247.185 77.904C246.705 78.1013 246.196 78.184 245.657 78.152ZM252.579 78.152C252.157 78.1253 251.747 78.04 251.347 77.896C250.947 77.752 250.595 77.5573 250.291 77.312C249.992 77.0613 249.768 76.768 249.619 76.432L251.035 75.824C251.104 75.968 251.224 76.1093 251.395 76.248C251.571 76.3867 251.776 76.5013 252.011 76.592C252.245 76.6773 252.491 76.72 252.747 76.72C252.997 76.72 253.229 76.6853 253.443 76.616C253.661 76.5413 253.84 76.4293 253.979 76.28C254.117 76.1307 254.187 75.952 254.187 75.744C254.187 75.5093 254.107 75.328 253.947 75.2C253.792 75.0667 253.597 74.9653 253.363 74.896C253.128 74.8267 252.893 74.76 252.659 74.696C252.136 74.5787 251.656 74.4187 251.219 74.216C250.787 74.008 250.443 73.744 250.187 73.424C249.931 73.0987 249.803 72.7013 249.803 72.232C249.803 71.72 249.941 71.2773 250.219 70.904C250.496 70.5253 250.859 70.2347 251.307 70.032C251.76 69.8293 252.243 69.728 252.755 69.728C253.395 69.728 253.981 69.864 254.515 70.136C255.048 70.408 255.456 70.7813 255.739 71.256L254.419 72.04C254.339 71.88 254.219 71.736 254.059 71.608C253.899 71.48 253.717 71.3787 253.515 71.304C253.312 71.224 253.101 71.1787 252.883 71.168C252.611 71.1573 252.357 71.1893 252.123 71.264C251.893 71.3333 251.709 71.4453 251.571 71.6C251.432 71.7547 251.363 71.952 251.363 72.192C251.363 72.4267 251.445 72.6027 251.611 72.72C251.776 72.832 251.984 72.9227 252.235 72.992C252.491 73.0613 252.752 73.1387 253.019 73.224C253.493 73.3733 253.939 73.5573 254.355 73.776C254.771 73.9893 255.107 74.2533 255.363 74.568C255.619 74.8827 255.741 75.2667 255.731 75.72C255.731 76.2213 255.579 76.6613 255.275 77.04C254.976 77.4187 254.587 77.7067 254.107 77.904C253.627 78.1013 253.117 78.184 252.579 78.152ZM269.416 66.8V68.464H265.848V78H264.184V68.464H260.624V66.8H269.416ZM269.866 78V70H271.53V70.848C271.808 70.5173 272.149 70.256 272.554 70.064C272.96 69.872 273.397 69.776 273.866 69.776C274.165 69.776 274.461 69.816 274.754 69.896L274.09 71.576C273.882 71.496 273.674 71.456 273.466 71.456C273.114 71.456 272.792 71.544 272.498 71.72C272.205 71.8907 271.97 72.1227 271.794 72.416C271.618 72.7093 271.53 73.0347 271.53 73.392V78H269.866ZM281.528 70H283.192V78H281.52L281.456 76.84C281.221 77.2507 280.904 77.5813 280.504 77.832C280.104 78.0827 279.632 78.208 279.088 78.208C278.501 78.208 277.949 78.0987 277.432 77.88C276.914 77.656 276.458 77.3467 276.064 76.952C275.674 76.5573 275.37 76.104 275.152 75.592C274.933 75.0747 274.824 74.52 274.824 73.928C274.824 73.3573 274.93 72.8213 275.144 72.32C275.357 71.8133 275.653 71.3707 276.032 70.992C276.41 70.6133 276.848 70.3173 277.344 70.104C277.845 69.8853 278.381 69.776 278.952 69.776C279.533 69.776 280.045 69.9093 280.488 70.176C280.936 70.4373 281.306 70.7733 281.6 71.184L281.528 70ZM279.048 76.6C279.517 76.6 279.928 76.4853 280.28 76.256C280.632 76.0213 280.904 75.7067 281.096 75.312C281.293 74.9173 281.392 74.48 281.392 74C281.392 73.5147 281.293 73.0747 281.096 72.68C280.898 72.2853 280.624 71.9733 280.272 71.744C279.925 71.5093 279.517 71.392 279.048 71.392C278.584 71.392 278.16 71.5093 277.776 71.744C277.392 71.9787 277.088 72.2933 276.864 72.688C276.64 73.0827 276.528 73.52 276.528 74C276.528 74.4853 276.642 74.9253 276.872 75.32C277.106 75.7093 277.413 76.0213 277.792 76.256C278.176 76.4853 278.594 76.6 279.048 76.6ZM289.856 75.728L291.344 76.536C290.981 77.0427 290.52 77.448 289.96 77.752C289.405 78.056 288.803 78.208 288.152 78.208C287.416 78.208 286.744 78.0187 286.136 77.64C285.533 77.2613 285.051 76.7547 284.688 76.12C284.331 75.48 284.152 74.7733 284.152 74C284.152 73.4133 284.256 72.8667 284.464 72.36C284.672 71.848 284.957 71.4 285.32 71.016C285.688 70.6267 286.115 70.3227 286.6 70.104C287.085 69.8853 287.603 69.776 288.152 69.776C288.803 69.776 289.405 69.928 289.96 70.232C290.52 70.536 290.981 70.944 291.344 71.456L289.856 72.264C289.632 71.9973 289.371 71.7947 289.072 71.656C288.773 71.512 288.467 71.44 288.152 71.44C287.715 71.44 287.317 71.56 286.96 71.8C286.608 72.0347 286.328 72.3467 286.12 72.736C285.917 73.12 285.816 73.5413 285.816 74C285.816 74.4533 285.92 74.8747 286.128 75.264C286.336 75.648 286.616 75.9573 286.968 76.192C287.325 76.4267 287.72 76.544 288.152 76.544C288.483 76.544 288.797 76.4693 289.096 76.32C289.395 76.1707 289.648 75.9733 289.856 75.728ZM297.012 71.664H295.332L295.324 78H293.66L293.668 71.664H292.396V70H293.668L293.66 67.488H295.324L295.332 70H297.012V71.664ZM298.335 70H299.999V78H298.335V70ZM299.183 68.84C298.927 68.84 298.714 68.7573 298.543 68.592C298.372 68.4267 298.287 68.2187 298.287 67.968C298.287 67.7227 298.372 67.5173 298.543 67.352C298.714 67.1813 298.924 67.096 299.175 67.096C299.42 67.096 299.628 67.1813 299.799 67.352C299.97 67.5173 300.055 67.7227 300.055 67.968C300.055 68.2187 299.97 68.4267 299.799 68.592C299.634 68.7573 299.428 68.84 299.183 68.84ZM305.293 78.208C304.557 78.208 303.885 78.0187 303.277 77.64C302.674 77.2613 302.191 76.7547 301.829 76.12C301.471 75.48 301.293 74.7733 301.293 74C301.293 73.4133 301.397 72.8667 301.605 72.36C301.813 71.848 302.098 71.4 302.461 71.016C302.829 70.6267 303.255 70.3227 303.741 70.104C304.226 69.8853 304.743 69.776 305.293 69.776C306.029 69.776 306.698 69.9653 307.301 70.344C307.909 70.7227 308.391 71.232 308.749 71.872C309.111 72.512 309.293 73.2213 309.293 74C309.293 74.5813 309.189 75.1253 308.981 75.632C308.773 76.1387 308.485 76.5867 308.117 76.976C307.754 77.36 307.33 77.6613 306.845 77.88C306.365 78.0987 305.847 78.208 305.293 78.208ZM305.293 76.544C305.735 76.544 306.133 76.4267 306.485 76.192C306.837 75.9573 307.114 75.648 307.317 75.264C307.525 74.8747 307.629 74.4533 307.629 74C307.629 73.536 307.522 73.1093 307.309 72.72C307.101 72.3307 306.821 72.0213 306.469 71.792C306.117 71.5573 305.725 71.44 305.293 71.44C304.855 71.44 304.458 71.5573 304.101 71.792C303.749 72.0267 303.469 72.3387 303.261 72.728C303.058 73.1173 302.957 73.5413 302.957 74C302.957 74.4747 303.063 74.904 303.277 75.288C303.49 75.672 303.773 75.9787 304.125 76.208C304.482 76.432 304.871 76.544 305.293 76.544ZM317.785 72.984V78H316.121V73.392C316.121 73.0347 316.033 72.7093 315.857 72.416C315.686 72.1227 315.454 71.8907 315.161 71.72C314.873 71.544 314.548 71.456 314.185 71.456C313.833 71.456 313.51 71.544 313.217 71.72C312.924 71.8907 312.689 72.1227 312.513 72.416C312.337 72.7093 312.249 73.0347 312.249 73.392V78H310.585V70H312.249V70.848C312.526 70.5173 312.868 70.256 313.273 70.064C313.678 69.872 314.116 69.776 314.585 69.776C315.177 69.776 315.716 69.92 316.201 70.208C316.686 70.496 317.07 70.8827 317.353 71.368C317.641 71.8533 317.785 72.392 317.785 72.984ZM327.082 78H325.426L322.746 70H324.378L326.266 75.616L328.138 70H329.818L331.69 75.616L333.57 70H335.202L332.53 78H330.858L328.97 72.344L327.082 78ZM336.444 70H338.108V78H336.444V70ZM337.292 68.84C337.036 68.84 336.823 68.7573 336.652 68.592C336.482 68.4267 336.396 68.2187 336.396 67.968C336.396 67.7227 336.482 67.5173 336.652 67.352C336.823 67.1813 337.034 67.096 337.284 67.096C337.53 67.096 337.738 67.1813 337.908 67.352C338.079 67.5173 338.164 67.7227 338.164 67.968C338.164 68.2187 338.079 68.4267 337.908 68.592C337.743 68.7573 337.538 68.84 337.292 68.84ZM344.247 71.664H342.567L342.559 78H340.895L340.903 71.664H339.631V70H340.903L340.895 67.488H342.559L342.567 70H344.247V71.664ZM352.879 72.984V78H351.215V73.392C351.215 73.0347 351.127 72.7093 350.951 72.416C350.78 72.1227 350.548 71.8907 350.255 71.72C349.967 71.544 349.641 71.456 349.279 71.456C348.927 71.456 348.604 71.544 348.311 71.72C348.017 71.8907 347.783 72.1227 347.607 72.416C347.431 72.7093 347.343 73.0347 347.343 73.392V78H345.679V66H347.343V70.848C347.62 70.5173 347.961 70.256 348.367 70.064C348.772 69.872 349.209 69.776 349.679 69.776C350.271 69.776 350.809 69.92 351.295 70.208C351.78 70.496 352.164 70.8827 352.447 71.368C352.735 71.8533 352.879 72.392 352.879 72.984ZM358.319 78L360.487 66.8H361.831L364.703 74.344L367.559 66.8H368.903L371.079 78H369.383L367.935 70.504L365.255 77.576H364.135L361.463 70.504L360.015 78H358.319ZM378.45 70H380.114V78H378.442L378.378 76.84C378.143 77.2507 377.826 77.5813 377.426 77.832C377.026 78.0827 376.554 78.208 376.01 78.208C375.423 78.208 374.871 78.0987 374.354 77.88C373.836 77.656 373.38 77.3467 372.986 76.952C372.596 76.5573 372.292 76.104 372.074 75.592C371.855 75.0747 371.746 74.52 371.746 73.928C371.746 73.3573 371.852 72.8213 372.066 72.32C372.279 71.8133 372.575 71.3707 372.954 70.992C373.332 70.6133 373.77 70.3173 374.266 70.104C374.767 69.8853 375.303 69.776 375.874 69.776C376.455 69.776 376.967 69.9093 377.41 70.176C377.858 70.4373 378.228 70.7733 378.522 71.184L378.45 70ZM375.97 76.6C376.439 76.6 376.85 76.4853 377.202 76.256C377.554 76.0213 377.826 75.7067 378.018 75.312C378.215 74.9173 378.314 74.48 378.314 74C378.314 73.5147 378.215 73.0747 378.018 72.68C377.82 72.2853 377.546 71.9733 377.194 71.744C376.847 71.5093 376.439 71.392 375.97 71.392C375.506 71.392 375.082 71.5093 374.698 71.744C374.314 71.9787 374.01 72.2933 373.786 72.688C373.562 73.0827 373.45 73.52 373.45 74C373.45 74.4853 373.564 74.9253 373.794 75.32C374.028 75.7093 374.335 76.0213 374.714 76.256C375.098 76.4853 375.516 76.6 375.97 76.6ZM386.778 75.728L388.266 76.536C387.903 77.0427 387.442 77.448 386.882 77.752C386.327 78.056 385.724 78.208 385.074 78.208C384.338 78.208 383.666 78.0187 383.058 77.64C382.455 77.2613 381.972 76.7547 381.61 76.12C381.252 75.48 381.074 74.7733 381.074 74C381.074 73.4133 381.178 72.8667 381.386 72.36C381.594 71.848 381.879 71.4 382.242 71.016C382.61 70.6267 383.036 70.3227 383.522 70.104C384.007 69.8853 384.524 69.776 385.074 69.776C385.724 69.776 386.327 69.928 386.882 70.232C387.442 70.536 387.903 70.944 388.266 71.456L386.778 72.264C386.554 71.9973 386.292 71.7947 385.994 71.656C385.695 71.512 385.388 71.44 385.074 71.44C384.636 71.44 384.239 71.56 383.882 71.8C383.53 72.0347 383.25 72.3467 383.042 72.736C382.839 73.12 382.738 73.5413 382.738 74C382.738 74.4533 382.842 74.8747 383.05 75.264C383.258 75.648 383.538 75.9573 383.89 76.192C384.247 76.4267 384.642 76.544 385.074 76.544C385.404 76.544 385.719 76.4693 386.018 76.32C386.316 76.1707 386.57 75.9733 386.778 75.728ZM396.707 72.984V78H395.043V73.392C395.043 73.0347 394.955 72.7093 394.779 72.416C394.608 72.1227 394.376 71.8907 394.083 71.72C393.795 71.544 393.47 71.456 393.107 71.456C392.755 71.456 392.432 71.544 392.139 71.72C391.846 71.8907 391.611 72.1227 391.435 72.416C391.259 72.7093 391.171 73.0347 391.171 73.392V78H389.507V66H391.171V70.848C391.448 70.5173 391.79 70.256 392.195 70.064C392.6 69.872 393.038 69.776 393.507 69.776C394.099 69.776 394.638 69.92 395.123 70.208C395.608 70.496 395.992 70.8827 396.275 71.368C396.563 71.8533 396.707 72.392 396.707 72.984ZM398.304 70H399.968V78H398.304V70ZM399.152 68.84C398.896 68.84 398.682 68.7573 398.512 68.592C398.341 68.4267 398.256 68.2187 398.256 67.968C398.256 67.7227 398.341 67.5173 398.512 67.352C398.682 67.1813 398.893 67.096 399.144 67.096C399.389 67.096 399.597 67.1813 399.768 67.352C399.938 67.5173 400.024 67.7227 400.024 67.968C400.024 68.2187 399.938 68.4267 399.768 68.592C399.602 68.7573 399.397 68.84 399.152 68.84ZM409.019 72.984V78H407.355V73.392C407.355 73.0347 407.267 72.7093 407.091 72.416C406.921 72.1227 406.689 71.8907 406.395 71.72C406.107 71.544 405.782 71.456 405.419 71.456C405.067 71.456 404.745 71.544 404.451 71.72C404.158 71.8907 403.923 72.1227 403.747 72.416C403.571 72.7093 403.483 73.0347 403.483 73.392V78H401.819V70H403.483V70.848C403.761 70.5173 404.102 70.256 404.507 70.064C404.913 69.872 405.35 69.776 405.819 69.776C406.411 69.776 406.95 69.92 407.435 70.208C407.921 70.496 408.305 70.8827 408.587 71.368C408.875 71.8533 409.019 72.392 409.019 72.984ZM413.98 78.208C413.244 78.208 412.572 78.0187 411.964 77.64C411.361 77.2613 410.879 76.7547 410.516 76.12C410.159 75.48 409.98 74.7733 409.98 74C409.98 73.4133 410.084 72.8667 410.292 72.36C410.5 71.848 410.785 71.4 411.148 71.016C411.516 70.6267 411.943 70.3227 412.428 70.104C412.913 69.8853 413.431 69.776 413.98 69.776C414.593 69.776 415.156 69.904 415.668 70.16C416.18 70.4107 416.617 70.76 416.98 71.208C417.343 71.6507 417.609 72.1627 417.78 72.744C417.951 73.32 418.001 73.9333 417.932 74.584H411.764C411.833 74.952 411.967 75.2853 412.164 75.584C412.367 75.8773 412.623 76.1093 412.932 76.28C413.247 76.4507 413.596 76.5387 413.98 76.544C414.385 76.544 414.753 76.4427 415.084 76.24C415.42 76.0373 415.695 75.7573 415.908 75.4L417.596 75.792C417.276 76.5013 416.793 77.0827 416.148 77.536C415.503 77.984 414.78 78.208 413.98 78.208ZM411.708 73.312H416.252C416.199 72.928 416.063 72.5813 415.844 72.272C415.631 71.9573 415.361 71.7093 415.036 71.528C414.716 71.3413 414.364 71.248 413.98 71.248C413.601 71.248 413.249 71.3387 412.924 71.52C412.604 71.7013 412.337 71.9493 412.124 72.264C411.916 72.5733 411.777 72.9227 411.708 73.312ZM423.241 78V66.8H427.361C427.969 66.8 428.516 66.9493 429.001 67.248C429.487 67.5467 429.871 67.9493 430.153 68.456C430.441 68.9573 430.585 69.5173 430.585 70.136C430.585 70.6587 430.487 71.136 430.289 71.568C430.097 72 429.825 72.368 429.473 72.672C429.127 72.976 428.729 73.1947 428.281 73.328L430.985 78H429.057L426.433 73.48H424.905V78H423.241ZM424.905 71.816H427.185C427.505 71.816 427.796 71.736 428.057 71.576C428.324 71.416 428.535 71.2027 428.689 70.936C428.844 70.6693 428.921 70.368 428.921 70.032C428.921 69.696 428.844 69.3947 428.689 69.128C428.535 68.856 428.324 68.6427 428.057 68.488C427.796 68.328 427.505 68.248 427.185 68.248H424.905V71.816ZM435.652 78.208C434.916 78.208 434.244 78.0187 433.636 77.64C433.033 77.2613 432.551 76.7547 432.188 76.12C431.831 75.48 431.652 74.7733 431.652 74C431.652 73.4133 431.756 72.8667 431.964 72.36C432.172 71.848 432.457 71.4 432.82 71.016C433.188 70.6267 433.615 70.3227 434.1 70.104C434.585 69.8853 435.103 69.776 435.652 69.776C436.388 69.776 437.057 69.9653 437.66 70.344C438.268 70.7227 438.751 71.232 439.108 71.872C439.471 72.512 439.652 73.2213 439.652 74C439.652 74.5813 439.548 75.1253 439.34 75.632C439.132 76.1387 438.844 76.5867 438.476 76.976C438.113 77.36 437.689 77.6613 437.204 77.88C436.724 78.0987 436.207 78.208 435.652 78.208ZM435.652 76.544C436.095 76.544 436.492 76.4267 436.844 76.192C437.196 75.9573 437.473 75.648 437.676 75.264C437.884 74.8747 437.988 74.4533 437.988 74C437.988 73.536 437.881 73.1093 437.668 72.72C437.46 72.3307 437.18 72.0213 436.828 71.792C436.476 71.5573 436.084 71.44 435.652 71.44C435.215 71.44 434.817 71.5573 434.46 71.792C434.108 72.0267 433.828 72.3387 433.62 72.728C433.417 73.1173 433.316 73.5413 433.316 74C433.316 74.4747 433.423 74.904 433.636 75.288C433.849 75.672 434.132 75.9787 434.484 76.208C434.841 76.432 435.231 76.544 435.652 76.544ZM444.449 78.208C443.713 78.208 443.041 78.0187 442.433 77.64C441.83 77.2613 441.347 76.7547 440.985 76.12C440.627 75.48 440.449 74.7733 440.449 74C440.449 73.4133 440.553 72.8667 440.761 72.36C440.969 71.848 441.254 71.4 441.617 71.016C441.985 70.6267 442.411 70.3227 442.897 70.104C443.382 69.8853 443.899 69.776 444.449 69.776C445.185 69.776 445.854 69.9653 446.457 70.344C447.065 70.7227 447.547 71.232 447.905 71.872C448.267 72.512 448.449 73.2213 448.449 74C448.449 74.5813 448.345 75.1253 448.137 75.632C447.929 76.1387 447.641 76.5867 447.273 76.976C446.91 77.36 446.486 77.6613 446.001 77.88C445.521 78.0987 445.003 78.208 444.449 78.208ZM444.449 76.544C444.891 76.544 445.289 76.4267 445.641 76.192C445.993 75.9573 446.27 75.648 446.473 75.264C446.681 74.8747 446.785 74.4533 446.785 74C446.785 73.536 446.678 73.1093 446.465 72.72C446.257 72.3307 445.977 72.0213 445.625 71.792C445.273 71.5573 444.881 71.44 444.449 71.44C444.011 71.44 443.614 71.5573 443.257 71.792C442.905 72.0267 442.625 72.3387 442.417 72.728C442.214 73.1173 442.113 73.5413 442.113 74C442.113 74.4747 442.219 74.904 442.433 75.288C442.646 75.672 442.929 75.9787 443.281 76.208C443.638 76.432 444.027 76.544 444.449 76.544ZM449.741 78V70H451.405V70.848C451.683 70.5173 452.021 70.256 452.421 70.064C452.827 69.872 453.264 69.776 453.733 69.776C454.304 69.776 454.829 69.9147 455.309 70.192C455.789 70.464 456.171 70.8267 456.453 71.28C456.736 70.8267 457.112 70.464 457.581 70.192C458.056 69.9147 458.579 69.776 459.149 69.776C459.741 69.776 460.28 69.92 460.765 70.208C461.251 70.496 461.637 70.8827 461.925 71.368C462.213 71.8533 462.357 72.392 462.357 72.984V78H460.693V73.408C460.693 73.056 460.608 72.7333 460.437 72.44C460.267 72.1467 460.037 71.9093 459.749 71.728C459.461 71.5467 459.141 71.456 458.789 71.456C458.437 71.456 458.117 71.5413 457.829 71.712C457.541 71.8827 457.312 72.1147 457.141 72.408C456.971 72.7013 456.885 73.0347 456.885 73.408V78H455.221V73.408C455.221 73.0347 455.136 72.7013 454.965 72.408C454.795 72.1147 454.563 71.8827 454.269 71.712C453.981 71.5413 453.661 71.456 453.309 71.456C452.963 71.456 452.643 71.5467 452.349 71.728C452.061 71.9093 451.832 72.1467 451.661 72.44C451.491 72.7333 451.405 73.056 451.405 73.408V78H449.741Z" fill="white"/>
<path d="M188.371 134.208C187.592 134.208 186.867 134.059 186.195 133.76C185.528 133.456 184.944 133.037 184.443 132.504C183.947 131.965 183.557 131.344 183.275 130.64C182.997 129.936 182.859 129.187 182.859 128.392C182.859 127.555 183.008 126.784 183.307 126.08C183.605 125.376 184.013 124.765 184.531 124.248C185.048 123.725 185.637 123.32 186.299 123.032C186.965 122.744 187.664 122.6 188.395 122.6C189.221 122.6 190.016 122.792 190.779 123.176C191.541 123.56 192.205 124.136 192.771 124.904L191.283 125.712C190.899 125.232 190.451 124.869 189.939 124.624C189.432 124.379 188.912 124.256 188.379 124.256C187.861 124.256 187.371 124.363 186.907 124.576C186.443 124.784 186.032 125.077 185.675 125.456C185.317 125.829 185.035 126.269 184.827 126.776C184.624 127.277 184.523 127.824 184.523 128.416C184.523 128.987 184.621 129.523 184.819 130.024C185.021 130.525 185.299 130.965 185.651 131.344C186.008 131.717 186.419 132.011 186.883 132.224C187.352 132.437 187.853 132.544 188.387 132.544C188.781 132.544 189.16 132.48 189.523 132.352C189.885 132.224 190.221 132.043 190.531 131.808C190.845 131.568 191.12 131.283 191.355 130.952C191.589 130.621 191.776 130.253 191.915 129.848H189.539V128.376H193.867C193.877 129.176 193.739 129.928 193.451 130.632C193.168 131.336 192.773 131.957 192.267 132.496C191.765 133.029 191.181 133.448 190.515 133.752C189.848 134.056 189.133 134.208 188.371 134.208ZM198.777 134.208C198.041 134.208 197.369 134.019 196.761 133.64C196.158 133.261 195.676 132.755 195.313 132.12C194.956 131.48 194.777 130.773 194.777 130C194.777 129.413 194.881 128.867 195.089 128.36C195.297 127.848 195.582 127.4 195.945 127.016C196.313 126.627 196.74 126.323 197.225 126.104C197.71 125.885 198.228 125.776 198.777 125.776C199.39 125.776 199.953 125.904 200.465 126.16C200.977 126.411 201.414 126.76 201.777 127.208C202.14 127.651 202.406 128.163 202.577 128.744C202.748 129.32 202.798 129.933 202.729 130.584H196.561C196.63 130.952 196.764 131.285 196.961 131.584C197.164 131.877 197.42 132.109 197.729 132.28C198.044 132.451 198.393 132.539 198.777 132.544C199.182 132.544 199.55 132.443 199.881 132.24C200.217 132.037 200.492 131.757 200.705 131.4L202.393 131.792C202.073 132.501 201.59 133.083 200.945 133.536C200.3 133.984 199.577 134.208 198.777 134.208ZM196.505 129.312H201.049C200.996 128.928 200.86 128.581 200.641 128.272C200.428 127.957 200.158 127.709 199.833 127.528C199.513 127.341 199.161 127.248 198.777 127.248C198.398 127.248 198.046 127.339 197.721 127.52C197.401 127.701 197.134 127.949 196.921 128.264C196.713 128.573 196.574 128.923 196.505 129.312ZM210.262 126H211.926V134H210.254L210.19 132.84C209.955 133.251 209.638 133.581 209.238 133.832C208.838 134.083 208.366 134.208 207.822 134.208C207.235 134.208 206.683 134.099 206.166 133.88C205.649 133.656 205.193 133.347 204.798 132.952C204.409 132.557 204.105 132.104 203.886 131.592C203.667 131.075 203.558 130.52 203.558 129.928C203.558 129.357 203.665 128.821 203.878 128.32C204.091 127.813 204.387 127.371 204.766 126.992C205.145 126.613 205.582 126.317 206.078 126.104C206.579 125.885 207.115 125.776 207.686 125.776C208.267 125.776 208.779 125.909 209.222 126.176C209.67 126.437 210.041 126.773 210.334 127.184L210.262 126ZM207.782 132.6C208.251 132.6 208.662 132.485 209.014 132.256C209.366 132.021 209.638 131.707 209.83 131.312C210.027 130.917 210.126 130.48 210.126 130C210.126 129.515 210.027 129.075 209.83 128.68C209.633 128.285 209.358 127.973 209.006 127.744C208.659 127.509 208.251 127.392 207.782 127.392C207.318 127.392 206.894 127.509 206.51 127.744C206.126 127.979 205.822 128.293 205.598 128.688C205.374 129.083 205.262 129.52 205.262 130C205.262 130.485 205.377 130.925 205.606 131.32C205.841 131.709 206.147 132.021 206.526 132.256C206.91 132.485 207.329 132.6 207.782 132.6ZM213.523 134V126H215.187V126.848C215.464 126.517 215.805 126.256 216.211 126.064C216.616 125.872 217.053 125.776 217.523 125.776C217.821 125.776 218.117 125.816 218.411 125.896L217.747 127.576C217.539 127.496 217.331 127.456 217.123 127.456C216.771 127.456 216.448 127.544 216.155 127.72C215.861 127.891 215.627 128.123 215.451 128.416C215.275 128.709 215.187 129.035 215.187 129.392V134H213.523ZM219.319 134V122H220.983V134H219.319ZM226.308 134.208C225.572 134.208 224.9 134.019 224.292 133.64C223.689 133.261 223.207 132.755 222.844 132.12C222.487 131.48 222.308 130.773 222.308 130C222.308 129.413 222.412 128.867 222.62 128.36C222.828 127.848 223.113 127.4 223.476 127.016C223.844 126.627 224.271 126.323 224.756 126.104C225.241 125.885 225.759 125.776 226.308 125.776C226.921 125.776 227.484 125.904 227.996 126.16C228.508 126.411 228.945 126.76 229.308 127.208C229.671 127.651 229.937 128.163 230.108 128.744C230.279 129.32 230.329 129.933 230.26 130.584H224.092C224.161 130.952 224.295 131.285 224.492 131.584C224.695 131.877 224.951 132.109 225.26 132.28C225.575 132.451 225.924 132.539 226.308 132.544C226.713 132.544 227.081 132.443 227.412 132.24C227.748 132.037 228.023 131.757 228.236 131.4L229.924 131.792C229.604 132.501 229.121 133.083 228.476 133.536C227.831 133.984 227.108 134.208 226.308 134.208ZM224.036 129.312H228.58C228.527 128.928 228.391 128.581 228.172 128.272C227.959 127.957 227.689 127.709 227.364 127.528C227.044 127.341 226.692 127.248 226.308 127.248C225.929 127.248 225.577 127.339 225.252 127.52C224.932 127.701 224.665 127.949 224.452 128.264C224.244 128.573 224.105 128.923 224.036 129.312ZM234.016 134.152C233.595 134.125 233.184 134.04 232.784 133.896C232.384 133.752 232.032 133.557 231.728 133.312C231.43 133.061 231.206 132.768 231.056 132.432L232.472 131.824C232.542 131.968 232.662 132.109 232.832 132.248C233.008 132.387 233.214 132.501 233.448 132.592C233.683 132.677 233.928 132.72 234.184 132.72C234.435 132.72 234.667 132.685 234.88 132.616C235.099 132.541 235.278 132.429 235.416 132.28C235.555 132.131 235.624 131.952 235.624 131.744C235.624 131.509 235.544 131.328 235.384 131.2C235.23 131.067 235.035 130.965 234.8 130.896C234.566 130.827 234.331 130.76 234.096 130.696C233.574 130.579 233.094 130.419 232.656 130.216C232.224 130.008 231.88 129.744 231.624 129.424C231.368 129.099 231.24 128.701 231.24 128.232C231.24 127.72 231.379 127.277 231.656 126.904C231.934 126.525 232.296 126.235 232.744 126.032C233.198 125.829 233.68 125.728 234.192 125.728C234.832 125.728 235.419 125.864 235.952 126.136C236.486 126.408 236.894 126.781 237.176 127.256L235.856 128.04C235.776 127.88 235.656 127.736 235.496 127.608C235.336 127.48 235.155 127.379 234.952 127.304C234.75 127.224 234.539 127.179 234.32 127.168C234.048 127.157 233.795 127.189 233.56 127.264C233.331 127.333 233.147 127.445 233.008 127.6C232.87 127.755 232.8 127.952 232.8 128.192C232.8 128.427 232.883 128.603 233.048 128.72C233.214 128.832 233.422 128.923 233.672 128.992C233.928 129.061 234.19 129.139 234.456 129.224C234.931 129.373 235.376 129.557 235.792 129.776C236.208 129.989 236.544 130.253 236.8 130.568C237.056 130.883 237.179 131.267 237.168 131.72C237.168 132.221 237.016 132.661 236.712 133.04C236.414 133.419 236.024 133.707 235.544 133.904C235.064 134.101 234.555 134.184 234.016 134.152ZM240.938 134.152C240.517 134.125 240.106 134.04 239.706 133.896C239.306 133.752 238.954 133.557 238.65 133.312C238.351 133.061 238.127 132.768 237.978 132.432L239.394 131.824C239.463 131.968 239.583 132.109 239.754 132.248C239.93 132.387 240.135 132.501 240.37 132.592C240.605 132.677 240.85 132.72 241.106 132.72C241.357 132.72 241.589 132.685 241.802 132.616C242.021 132.541 242.199 132.429 242.338 132.28C242.477 132.131 242.546 131.952 242.546 131.744C242.546 131.509 242.466 131.328 242.306 131.2C242.151 131.067 241.957 130.965 241.722 130.896C241.487 130.827 241.253 130.76 241.018 130.696C240.495 130.579 240.015 130.419 239.578 130.216C239.146 130.008 238.802 129.744 238.546 129.424C238.29 129.099 238.162 128.701 238.162 128.232C238.162 127.72 238.301 127.277 238.578 126.904C238.855 126.525 239.218 126.235 239.666 126.032C240.119 125.829 240.602 125.728 241.114 125.728C241.754 125.728 242.341 125.864 242.874 126.136C243.407 126.408 243.815 126.781 244.098 127.256L242.778 128.04C242.698 127.88 242.578 127.736 242.418 127.608C242.258 127.48 242.077 127.379 241.874 127.304C241.671 127.224 241.461 127.179 241.242 127.168C240.97 127.157 240.717 127.189 240.482 127.264C240.253 127.333 240.069 127.445 239.93 127.6C239.791 127.755 239.722 127.952 239.722 128.192C239.722 128.427 239.805 128.603 239.97 128.72C240.135 128.832 240.343 128.923 240.594 128.992C240.85 129.061 241.111 129.139 241.378 129.224C241.853 129.373 242.298 129.557 242.714 129.776C243.13 129.989 243.466 130.253 243.722 130.568C243.978 130.883 244.101 131.267 244.09 131.72C244.09 132.221 243.938 132.661 243.634 133.04C243.335 133.419 242.946 133.707 242.466 133.904C241.986 134.101 241.477 134.184 240.938 134.152ZM257.776 122.8V124.464H254.208V134H252.544V124.464H248.984V122.8H257.776ZM258.226 134V126H259.89V126.848C260.167 126.517 260.508 126.256 260.914 126.064C261.319 125.872 261.756 125.776 262.226 125.776C262.524 125.776 262.82 125.816 263.114 125.896L262.45 127.576C262.242 127.496 262.034 127.456 261.826 127.456C261.474 127.456 261.151 127.544 260.858 127.72C260.564 127.891 260.33 128.123 260.154 128.416C259.978 128.709 259.89 129.035 259.89 129.392V134H258.226ZM269.887 126H271.551V134H269.879L269.815 132.84C269.58 133.251 269.263 133.581 268.863 133.832C268.463 134.083 267.991 134.208 267.447 134.208C266.86 134.208 266.308 134.099 265.791 133.88C265.274 133.656 264.818 133.347 264.423 132.952C264.034 132.557 263.73 132.104 263.511 131.592C263.292 131.075 263.183 130.52 263.183 129.928C263.183 129.357 263.29 128.821 263.503 128.32C263.716 127.813 264.012 127.371 264.391 126.992C264.77 126.613 265.207 126.317 265.703 126.104C266.204 125.885 266.74 125.776 267.311 125.776C267.892 125.776 268.404 125.909 268.847 126.176C269.295 126.437 269.666 126.773 269.959 127.184L269.887 126ZM267.407 132.6C267.876 132.6 268.287 132.485 268.639 132.256C268.991 132.021 269.263 131.707 269.455 131.312C269.652 130.917 269.751 130.48 269.751 130C269.751 129.515 269.652 129.075 269.455 128.68C269.258 128.285 268.983 127.973 268.631 127.744C268.284 127.509 267.876 127.392 267.407 127.392C266.943 127.392 266.519 127.509 266.135 127.744C265.751 127.979 265.447 128.293 265.223 128.688C264.999 129.083 264.887 129.52 264.887 130C264.887 130.485 265.002 130.925 265.231 131.32C265.466 131.709 265.772 132.021 266.151 132.256C266.535 132.485 266.954 132.6 267.407 132.6ZM278.215 131.728L279.703 132.536C279.341 133.043 278.879 133.448 278.319 133.752C277.765 134.056 277.162 134.208 276.511 134.208C275.775 134.208 275.103 134.019 274.495 133.64C273.893 133.261 273.41 132.755 273.047 132.12C272.69 131.48 272.511 130.773 272.511 130C272.511 129.413 272.615 128.867 272.823 128.36C273.031 127.848 273.317 127.4 273.679 127.016C274.047 126.627 274.474 126.323 274.959 126.104C275.445 125.885 275.962 125.776 276.511 125.776C277.162 125.776 277.765 125.928 278.319 126.232C278.879 126.536 279.341 126.944 279.703 127.456L278.215 128.264C277.991 127.997 277.73 127.795 277.431 127.656C277.133 127.512 276.826 127.44 276.511 127.44C276.074 127.44 275.677 127.56 275.319 127.8C274.967 128.035 274.687 128.347 274.479 128.736C274.277 129.12 274.175 129.541 274.175 130C274.175 130.453 274.279 130.875 274.487 131.264C274.695 131.648 274.975 131.957 275.327 132.192C275.685 132.427 276.079 132.544 276.511 132.544C276.842 132.544 277.157 132.469 277.455 132.32C277.754 132.171 278.007 131.973 278.215 131.728ZM285.372 127.664H283.692L283.684 134H282.02L282.028 127.664H280.756V126H282.028L282.02 123.488H283.684L283.692 126H285.372V127.664ZM286.694 126H288.358V134H286.694V126ZM287.542 124.84C287.286 124.84 287.073 124.757 286.902 124.592C286.732 124.427 286.646 124.219 286.646 123.968C286.646 123.723 286.732 123.517 286.902 123.352C287.073 123.181 287.284 123.096 287.534 123.096C287.78 123.096 287.988 123.181 288.158 123.352C288.329 123.517 288.414 123.723 288.414 123.968C288.414 124.219 288.329 124.427 288.158 124.592C287.993 124.757 287.788 124.84 287.542 124.84ZM293.652 134.208C292.916 134.208 292.244 134.019 291.636 133.64C291.033 133.261 290.551 132.755 290.188 132.12C289.831 131.48 289.652 130.773 289.652 130C289.652 129.413 289.756 128.867 289.964 128.36C290.172 127.848 290.457 127.4 290.82 127.016C291.188 126.627 291.615 126.323 292.1 126.104C292.585 125.885 293.103 125.776 293.652 125.776C294.388 125.776 295.057 125.965 295.66 126.344C296.268 126.723 296.751 127.232 297.108 127.872C297.471 128.512 297.652 129.221 297.652 130C297.652 130.581 297.548 131.125 297.34 131.632C297.132 132.139 296.844 132.587 296.476 132.976C296.113 133.36 295.689 133.661 295.204 133.88C294.724 134.099 294.207 134.208 293.652 134.208ZM293.652 132.544C294.095 132.544 294.492 132.427 294.844 132.192C295.196 131.957 295.473 131.648 295.676 131.264C295.884 130.875 295.988 130.453 295.988 130C295.988 129.536 295.881 129.109 295.668 128.72C295.46 128.331 295.18 128.021 294.828 127.792C294.476 127.557 294.084 127.44 293.652 127.44C293.215 127.44 292.817 127.557 292.46 127.792C292.108 128.027 291.828 128.339 291.62 128.728C291.417 129.117 291.316 129.541 291.316 130C291.316 130.475 291.423 130.904 291.636 131.288C291.849 131.672 292.132 131.979 292.484 132.208C292.841 132.432 293.231 132.544 293.652 132.544ZM306.144 128.984V134H304.48V129.392C304.48 129.035 304.392 128.709 304.216 128.416C304.046 128.123 303.814 127.891 303.52 127.72C303.232 127.544 302.907 127.456 302.544 127.456C302.192 127.456 301.87 127.544 301.576 127.72C301.283 127.891 301.048 128.123 300.872 128.416C300.696 128.709 300.608 129.035 300.608 129.392V134H298.944V126H300.608V126.848C300.886 126.517 301.227 126.256 301.632 126.064C302.038 125.872 302.475 125.776 302.944 125.776C303.536 125.776 304.075 125.92 304.56 126.208C305.046 126.496 305.43 126.883 305.712 127.368C306 127.853 306.144 128.392 306.144 128.984ZM315.441 134H313.785L311.105 126H312.737L314.625 131.616L316.497 126H318.177L320.049 131.616L321.929 126H323.561L320.889 134H319.217L317.329 128.344L315.441 134ZM324.804 126H326.468V134H324.804V126ZM325.652 124.84C325.396 124.84 325.182 124.757 325.012 124.592C324.841 124.427 324.756 124.219 324.756 123.968C324.756 123.723 324.841 123.517 325.012 123.352C325.182 123.181 325.393 123.096 325.644 123.096C325.889 123.096 326.097 123.181 326.268 123.352C326.438 123.517 326.524 123.723 326.524 123.968C326.524 124.219 326.438 124.427 326.268 124.592C326.102 124.757 325.897 124.84 325.652 124.84ZM332.606 127.664H330.926L330.918 134H329.254L329.262 127.664H327.99V126H329.262L329.254 123.488H330.918L330.926 126H332.606V127.664ZM341.238 128.984V134H339.574V129.392C339.574 129.035 339.486 128.709 339.31 128.416C339.139 128.123 338.907 127.891 338.614 127.72C338.326 127.544 338.001 127.456 337.638 127.456C337.286 127.456 336.963 127.544 336.67 127.72C336.377 127.891 336.142 128.123 335.966 128.416C335.79 128.709 335.702 129.035 335.702 129.392V134H334.038V122H335.702V126.848C335.979 126.517 336.321 126.256 336.726 126.064C337.131 125.872 337.569 125.776 338.038 125.776C338.63 125.776 339.169 125.92 339.654 126.208C340.139 126.496 340.523 126.883 340.806 127.368C341.094 127.853 341.238 128.392 341.238 128.984ZM346.199 134.208C345.463 134.208 344.791 134.019 344.183 133.64C343.58 133.261 343.097 132.755 342.735 132.12C342.377 131.48 342.199 130.773 342.199 130C342.199 129.413 342.303 128.867 342.511 128.36C342.719 127.848 343.004 127.4 343.367 127.016C343.735 126.627 344.161 126.323 344.647 126.104C345.132 125.885 345.649 125.776 346.199 125.776C346.935 125.776 347.604 125.965 348.207 126.344C348.815 126.723 349.297 127.232 349.655 127.872C350.017 128.512 350.199 129.221 350.199 130C350.199 130.581 350.095 131.125 349.887 131.632C349.679 132.139 349.391 132.587 349.023 132.976C348.66 133.36 348.236 133.661 347.751 133.88C347.271 134.099 346.753 134.208 346.199 134.208ZM346.199 132.544C346.641 132.544 347.039 132.427 347.391 132.192C347.743 131.957 348.02 131.648 348.223 131.264C348.431 130.875 348.535 130.453 348.535 130C348.535 129.536 348.428 129.109 348.215 128.72C348.007 128.331 347.727 128.021 347.375 127.792C347.023 127.557 346.631 127.44 346.199 127.44C345.761 127.44 345.364 127.557 345.007 127.792C344.655 128.027 344.375 128.339 344.167 128.728C343.964 129.117 343.863 129.541 343.863 130C343.863 130.475 343.969 130.904 344.183 131.288C344.396 131.672 344.679 131.979 345.031 132.208C345.388 132.432 345.777 132.544 346.199 132.544ZM351.015 131V126H352.679V130.592C352.679 130.949 352.767 131.275 352.943 131.568C353.119 131.861 353.354 132.096 353.647 132.272C353.94 132.443 354.263 132.528 354.615 132.528C354.972 132.528 355.295 132.443 355.583 132.272C355.876 132.096 356.108 131.861 356.279 131.568C356.455 131.275 356.543 130.949 356.543 130.592V126H358.207L358.215 134H356.551L356.543 133.136C356.271 133.467 355.932 133.728 355.527 133.92C355.122 134.112 354.687 134.208 354.223 134.208C353.631 134.208 353.092 134.064 352.607 133.776C352.122 133.488 351.735 133.101 351.447 132.616C351.159 132.131 351.015 131.592 351.015 131ZM364.043 127.664H362.363L362.355 134H360.691L360.699 127.664H359.427V126H360.699L360.691 123.488H362.355L362.363 126H364.043V127.664ZM369.319 134L371.487 122.8H372.831L375.703 130.344L378.559 122.8H379.903L382.079 134H380.383L378.935 126.504L376.255 133.576H375.135L372.463 126.504L371.015 134H369.319ZM389.45 126H391.114V134H389.442L389.378 132.84C389.143 133.251 388.826 133.581 388.426 133.832C388.026 134.083 387.554 134.208 387.01 134.208C386.423 134.208 385.871 134.099 385.354 133.88C384.836 133.656 384.38 133.347 383.986 132.952C383.596 132.557 383.292 132.104 383.074 131.592C382.855 131.075 382.746 130.52 382.746 129.928C382.746 129.357 382.852 128.821 383.066 128.32C383.279 127.813 383.575 127.371 383.954 126.992C384.332 126.613 384.77 126.317 385.266 126.104C385.767 125.885 386.303 125.776 386.874 125.776C387.455 125.776 387.967 125.909 388.41 126.176C388.858 126.437 389.228 126.773 389.522 127.184L389.45 126ZM386.97 132.6C387.439 132.6 387.85 132.485 388.202 132.256C388.554 132.021 388.826 131.707 389.018 131.312C389.215 130.917 389.314 130.48 389.314 130C389.314 129.515 389.215 129.075 389.018 128.68C388.82 128.285 388.546 127.973 388.194 127.744C387.847 127.509 387.439 127.392 386.97 127.392C386.506 127.392 386.082 127.509 385.698 127.744C385.314 127.979 385.01 128.293 384.786 128.688C384.562 129.083 384.45 129.52 384.45 130C384.45 130.485 384.564 130.925 384.794 131.32C385.028 131.709 385.335 132.021 385.714 132.256C386.098 132.485 386.516 132.6 386.97 132.6ZM397.778 131.728L399.266 132.536C398.903 133.043 398.442 133.448 397.882 133.752C397.327 134.056 396.724 134.208 396.074 134.208C395.338 134.208 394.666 134.019 394.058 133.64C393.455 133.261 392.972 132.755 392.61 132.12C392.252 131.48 392.074 130.773 392.074 130C392.074 129.413 392.178 128.867 392.386 128.36C392.594 127.848 392.879 127.4 393.242 127.016C393.61 126.627 394.036 126.323 394.522 126.104C395.007 125.885 395.524 125.776 396.074 125.776C396.724 125.776 397.327 125.928 397.882 126.232C398.442 126.536 398.903 126.944 399.266 127.456L397.778 128.264C397.554 127.997 397.292 127.795 396.994 127.656C396.695 127.512 396.388 127.44 396.074 127.44C395.636 127.44 395.239 127.56 394.882 127.8C394.53 128.035 394.25 128.347 394.042 128.736C393.839 129.12 393.738 129.541 393.738 130C393.738 130.453 393.842 130.875 394.05 131.264C394.258 131.648 394.538 131.957 394.89 132.192C395.247 132.427 395.642 132.544 396.074 132.544C396.404 132.544 396.719 132.469 397.018 132.32C397.316 132.171 397.57 131.973 397.778 131.728ZM407.707 128.984V134H406.043V129.392C406.043 129.035 405.955 128.709 405.779 128.416C405.608 128.123 405.376 127.891 405.083 127.72C404.795 127.544 404.47 127.456 404.107 127.456C403.755 127.456 403.432 127.544 403.139 127.72C402.846 127.891 402.611 128.123 402.435 128.416C402.259 128.709 402.171 129.035 402.171 129.392V134H400.507V122H402.171V126.848C402.448 126.517 402.79 126.256 403.195 126.064C403.6 125.872 404.038 125.776 404.507 125.776C405.099 125.776 405.638 125.92 406.123 126.208C406.608 126.496 406.992 126.883 407.275 127.368C407.563 127.853 407.707 128.392 407.707 128.984ZM409.304 126H410.968V134H409.304V126ZM410.152 124.84C409.896 124.84 409.682 124.757 409.512 124.592C409.341 124.427 409.256 124.219 409.256 123.968C409.256 123.723 409.341 123.517 409.512 123.352C409.682 123.181 409.893 123.096 410.144 123.096C410.389 123.096 410.597 123.181 410.768 123.352C410.938 123.517 411.024 123.723 411.024 123.968C411.024 124.219 410.938 124.427 410.768 124.592C410.602 124.757 410.397 124.84 410.152 124.84ZM420.019 128.984V134H418.355V129.392C418.355 129.035 418.267 128.709 418.091 128.416C417.921 128.123 417.689 127.891 417.395 127.72C417.107 127.544 416.782 127.456 416.419 127.456C416.067 127.456 415.745 127.544 415.451 127.72C415.158 127.891 414.923 128.123 414.747 128.416C414.571 128.709 414.483 129.035 414.483 129.392V134H412.819V126H414.483V126.848C414.761 126.517 415.102 126.256 415.507 126.064C415.913 125.872 416.35 125.776 416.819 125.776C417.411 125.776 417.95 125.92 418.435 126.208C418.921 126.496 419.305 126.883 419.587 127.368C419.875 127.853 420.019 128.392 420.019 128.984ZM424.98 134.208C424.244 134.208 423.572 134.019 422.964 133.64C422.361 133.261 421.879 132.755 421.516 132.12C421.159 131.48 420.98 130.773 420.98 130C420.98 129.413 421.084 128.867 421.292 128.36C421.5 127.848 421.785 127.4 422.148 127.016C422.516 126.627 422.943 126.323 423.428 126.104C423.913 125.885 424.431 125.776 424.98 125.776C425.593 125.776 426.156 125.904 426.668 126.16C427.18 126.411 427.617 126.76 427.98 127.208C428.343 127.651 428.609 128.163 428.78 128.744C428.951 129.32 429.001 129.933 428.932 130.584H422.764C422.833 130.952 422.967 131.285 423.164 131.584C423.367 131.877 423.623 132.109 423.932 132.28C424.247 132.451 424.596 132.539 424.98 132.544C425.385 132.544 425.753 132.443 426.084 132.24C426.42 132.037 426.695 131.757 426.908 131.4L428.596 131.792C428.276 132.501 427.793 133.083 427.148 133.536C426.503 133.984 425.78 134.208 424.98 134.208ZM422.708 129.312H427.252C427.199 128.928 427.063 128.581 426.844 128.272C426.631 127.957 426.361 127.709 426.036 127.528C425.716 127.341 425.364 127.248 424.98 127.248C424.601 127.248 424.249 127.339 423.924 127.52C423.604 127.701 423.337 127.949 423.124 128.264C422.916 128.573 422.777 128.923 422.708 129.312ZM434.241 134V122.8H438.361C438.969 122.8 439.516 122.949 440.001 123.248C440.487 123.547 440.871 123.949 441.153 124.456C441.441 124.957 441.585 125.517 441.585 126.136C441.585 126.659 441.487 127.136 441.289 127.568C441.097 128 440.825 128.368 440.473 128.672C440.127 128.976 439.729 129.195 439.281 129.328L441.985 134H440.057L437.433 129.48H435.905V134H434.241ZM435.905 127.816H438.185C438.505 127.816 438.796 127.736 439.057 127.576C439.324 127.416 439.535 127.203 439.689 126.936C439.844 126.669 439.921 126.368 439.921 126.032C439.921 125.696 439.844 125.395 439.689 125.128C439.535 124.856 439.324 124.643 439.057 124.488C438.796 124.328 438.505 124.248 438.185 124.248H435.905V127.816ZM446.652 134.208C445.916 134.208 445.244 134.019 444.636 133.64C444.033 133.261 443.551 132.755 443.188 132.12C442.831 131.48 442.652 130.773 442.652 130C442.652 129.413 442.756 128.867 442.964 128.36C443.172 127.848 443.457 127.4 443.82 127.016C444.188 126.627 444.615 126.323 445.1 126.104C445.585 125.885 446.103 125.776 446.652 125.776C447.388 125.776 448.057 125.965 448.66 126.344C449.268 126.723 449.751 127.232 450.108 127.872C450.471 128.512 450.652 129.221 450.652 130C450.652 130.581 450.548 131.125 450.34 131.632C450.132 132.139 449.844 132.587 449.476 132.976C449.113 133.36 448.689 133.661 448.204 133.88C447.724 134.099 447.207 134.208 446.652 134.208ZM446.652 132.544C447.095 132.544 447.492 132.427 447.844 132.192C448.196 131.957 448.473 131.648 448.676 131.264C448.884 130.875 448.988 130.453 448.988 130C448.988 129.536 448.881 129.109 448.668 128.72C448.46 128.331 448.18 128.021 447.828 127.792C447.476 127.557 447.084 127.44 446.652 127.44C446.215 127.44 445.817 127.557 445.46 127.792C445.108 128.027 444.828 128.339 444.62 128.728C444.417 129.117 444.316 129.541 444.316 130C444.316 130.475 444.423 130.904 444.636 131.288C444.849 131.672 445.132 131.979 445.484 132.208C445.841 132.432 446.231 132.544 446.652 132.544ZM455.449 134.208C454.713 134.208 454.041 134.019 453.433 133.64C452.83 133.261 452.347 132.755 451.985 132.12C451.627 131.48 451.449 130.773 451.449 130C451.449 129.413 451.553 128.867 451.761 128.36C451.969 127.848 452.254 127.4 452.617 127.016C452.985 126.627 453.411 126.323 453.897 126.104C454.382 125.885 454.899 125.776 455.449 125.776C456.185 125.776 456.854 125.965 457.457 126.344C458.065 126.723 458.547 127.232 458.905 127.872C459.267 128.512 459.449 129.221 459.449 130C459.449 130.581 459.345 131.125 459.137 131.632C458.929 132.139 458.641 132.587 458.273 132.976C457.91 133.36 457.486 133.661 457.001 133.88C456.521 134.099 456.003 134.208 455.449 134.208ZM455.449 132.544C455.891 132.544 456.289 132.427 456.641 132.192C456.993 131.957 457.27 131.648 457.473 131.264C457.681 130.875 457.785 130.453 457.785 130C457.785 129.536 457.678 129.109 457.465 128.72C457.257 128.331 456.977 128.021 456.625 127.792C456.273 127.557 455.881 127.44 455.449 127.44C455.011 127.44 454.614 127.557 454.257 127.792C453.905 128.027 453.625 128.339 453.417 128.728C453.214 129.117 453.113 129.541 453.113 130C453.113 130.475 453.219 130.904 453.433 131.288C453.646 131.672 453.929 131.979 454.281 132.208C454.638 132.432 455.027 132.544 455.449 132.544ZM460.741 134V126H462.405V126.848C462.683 126.517 463.021 126.256 463.421 126.064C463.827 125.872 464.264 125.776 464.733 125.776C465.304 125.776 465.829 125.915 466.309 126.192C466.789 126.464 467.171 126.827 467.453 127.28C467.736 126.827 468.112 126.464 468.581 126.192C469.056 125.915 469.579 125.776 470.149 125.776C470.741 125.776 471.28 125.92 471.765 126.208C472.251 126.496 472.637 126.883 472.925 127.368C473.213 127.853 473.357 128.392 473.357 128.984V134H471.693V129.408C471.693 129.056 471.608 128.733 471.437 128.44C471.267 128.147 471.037 127.909 470.749 127.728C470.461 127.547 470.141 127.456 469.789 127.456C469.437 127.456 469.117 127.541 468.829 127.712C468.541 127.883 468.312 128.115 468.141 128.408C467.971 128.701 467.885 129.035 467.885 129.408V134H466.221V129.408C466.221 129.035 466.136 128.701 465.965 128.408C465.795 128.115 465.563 127.883 465.269 127.712C464.981 127.541 464.661 127.456 464.309 127.456C463.963 127.456 463.643 127.547 463.349 127.728C463.061 127.909 462.832 128.147 462.661 128.44C462.491 128.733 462.405 129.056 462.405 129.408V134H460.741Z" fill="white"/>
<path fill-rule="evenodd" clip-rule="evenodd" d="M172.5 13.5H157.5V72.5H172.5V73.5H157.5V131H172.5V132H157H156.5V131.5V73V13V12.5H157H172.5V13.5ZM125 14H140V72.25H125V73.25H140V131.5H125V132.5H140.5H141V132V72.75V13.5V13H140.5H125V14Z" fill="#424242"/>
<path d="M157.354 73.3536C157.549 73.1583 157.549 72.8417 157.354 72.6464L154.172 69.4645C153.976 69.2692 153.66 69.2692 153.464 69.4645C153.269 69.6597 153.269 69.9763 153.464 70.1716L156.293 73L153.464 75.8284C153.269 76.0237 153.269 76.3403 153.464 76.5355C153.66 76.7308 153.976 76.7308 154.172 76.5355L157.354 73.3536ZM141 73.5H157V72.5H141V73.5Z" fill="black"/>
<path d="M140.646 73.3536C140.451 73.1583 140.451 72.8417 140.646 72.6464L143.828 69.4645C144.024 69.2692 144.34 69.2692 144.536 69.4645C144.731 69.6597 144.731 69.9763 144.536 70.1716L141.707 73L144.536 75.8284C144.731 76.0237 144.731 76.3403 144.536 76.5355C144.34 76.7308 144.024 76.7308 143.828 76.5355L140.646 73.3536ZM157 73.5H141V72.5H157V73.5Z" fill="black"/>
<path d="M141 73L144.5 70L144.5 76L141 73Z" fill="black"/>
<path d="M157 73L153.5 70L153.5 76L157 73Z" fill="black"/>
</svg>
