<svg width="67" height="8" viewBox="0 0 67 8" fill="none" xmlns="http://www.w3.org/2000/svg">
<path d="M10.582 0.0249997L8.998 2.082L3.388 2.082C3.08733 2.082 2.937 2.18833 2.937 2.401C2.937 2.61367 3.08733 2.72 3.388 2.72H7.425C8.38567 2.72 9.18867 2.95467 9.834 3.424C10.5013 3.92267 10.835 4.568 10.835 5.36C10.835 6.14467 10.4977 6.779 9.823 7.263C9.19233 7.725 8.393 7.956 7.425 7.956L0.165 7.956L1.749 5.91L7.425 5.91C7.68167 5.91 7.91267 5.866 8.118 5.778C8.382 5.668 8.514 5.51767 8.514 5.327C8.514 5.129 8.382 4.97867 8.118 4.876C7.92 4.80267 7.689 4.766 7.425 4.766L3.388 4.766C2.49333 4.766 1.74533 4.56067 1.144 4.15C0.498667 3.71 0.176 3.127 0.176 2.401C0.176 1.66767 0.498667 1.081 1.144 0.641C1.74533 0.230333 2.49333 0.0249997 3.388 0.0249997L10.582 0.0249997ZM20.4953 0.0249997L18.9003 2.082H16.5243L16.5243 7.956H14.0603V2.082L10.7933 2.082L12.3773 0.0249997L20.4953 0.0249997ZM33.631 5.91L32.036 7.956L25.029 7.956L25.029 0.0249997H27.482V5.91L33.631 5.91ZM36.7798 7.956H34.3268V0.0249997L36.7798 0.0249997V7.956ZM46.0621 0.0249997L44.4781 2.082L39.9131 2.082V2.918L45.6771 2.918L44.0931 4.964H39.9131V7.956L37.4491 7.956V0.0249997L46.0621 0.0249997ZM55.6545 0.0249997L54.0595 2.082L51.6835 2.082V7.956L49.2195 7.956V2.082L45.9525 2.082L47.5365 0.0249997L55.6545 0.0249997ZM66.2373 0.0249997L64.6533 2.082L59.0433 2.082C58.7426 2.082 58.5923 2.18833 58.5923 2.401C58.5923 2.61367 58.7426 2.72 59.0433 2.72H63.0803C64.0409 2.72 64.8439 2.95467 65.4893 3.424C66.1566 3.92267 66.4903 4.568 66.4903 5.36C66.4903 6.14467 66.1529 6.779 65.4783 7.263C64.8476 7.725 64.0483 7.956 63.0803 7.956L55.8203 7.956L57.4043 5.91L63.0803 5.91C63.3369 5.91 63.5679 5.866 63.7733 5.778C64.0373 5.668 64.1693 5.51767 64.1693 5.327C64.1693 5.129 64.0373 4.97867 63.7733 4.876C63.5753 4.80267 63.3443 4.766 63.0803 4.766L59.0433 4.766C58.1486 4.766 57.4006 4.56067 56.7993 4.15C56.1539 3.71 55.8313 3.127 55.8313 2.401C55.8313 1.66767 56.1539 1.081 56.7993 0.641C57.4006 0.230333 58.1486 0.0249997 59.0433 0.0249997L66.2373 0.0249997Z" fill="#3D3D3D"/>
</svg>
